<svg version="1.2" xmlns="http://www.w3.org/2000/svg" viewBox="0 0 190 190" width="190" height="190">
	<title>stablehedge-bch</title>
	<defs>
		<clipPath clipPathUnits="userSpaceOnUse" id="cp1">
			<path d="m-13-41h217.6v261.99h-217.6z"/>
		</clipPath>
	</defs>
	<style>
		.s0 { fill: #0ac18e } 
		.s1 { fill: none;stroke: #000000;stroke-miterlimit:10;stroke-width: 5.3 } 
		.s2 { fill: #000000 } 
		.s3 { fill: none;stroke: #000000;stroke-miterlimit:10;stroke-width: 2.7 } 
		.s4 { fill: #ffffff } 
		.s5 { fill: none;stroke: #000000;stroke-miterlimit:10;stroke-width: 4 } 
	</style>
	<g id="g8">
		<g id="g10">
			<g id="Clip-Path: g12" clip-path="url(#cp1)">
				<g id="g12">
					<g id="g18">
						<path id="path20" class="s0" d="m142.9 149.3q0.4-0.5 0.9-1 1.1-1.3 2.2-2.5 0.5-0.6 1-1.1 1.1-1.3 2.2-2.7 0.4-0.5 0.8-1 1.1-1.4 2.2-2.9 0.3-0.4 0.7-0.9 1-1.4 1.9-2.7 0.4-0.6 0.8-1.2 0.9-1.3 1.8-2.7 0.4-0.7 0.8-1.3 0.9-1.4 1.8-2.9 0.4-0.6 0.7-1.2 0.8-1.5 1.6-2.9 0.4-0.7 0.7-1.3 0.8-1.4 1.4-2.8 0.4-0.7 0.8-1.5 0.6-1.3 1.2-2.6 0.4-0.9 0.8-1.8 0.6-1.3 1.2-2.7 0.3-0.9 0.7-1.7 0.5-1.4 1-2.7 0.4-0.9 0.7-1.9 0.6-1.6 1.1-3.3 0.2-0.6 0.4-1.3 0.5-1.4 0.9-2.9 0.3-0.9 0.5-1.8 0.4-1.4 0.7-2.9 0.3-0.9 0.5-1.9 0.3-1.3 0.6-2.5 0.2-1.2 0.4-2.3 0.2-1 0.4-2.1 0.2-1.4 0.5-2.8 0.2-1.6 0.4-3.1 0.1-0.9 0.2-1.9 0.2-1.2 0.3-2.5 0.1-1.2 0.2-2.5 0.4-5 0.4-10.2 0-2.2-0.1-4.4 0-0.4 0-0.7-0.1-1.9-0.2-3.7 0-0.3 0-0.6-0.2-1.9-0.4-3.9 0-0.2 0-0.4-0.2-1.5-0.3-3.1-0.1 0-0.1 0 0-0.5-0.1-0.9c-21.3-19.5-49.7-31.4-80.9-31.4q-0.1 0-0.3 0-0.1 0-0.3 0c-31.1 0-59.5 11.9-80.8 31.4q-0.1 0.4-0.1 0.9 0 0-0.1 0-0.2 1.6-0.3 3.1 0 0.2-0.1 0.4-0.1 2-0.3 3.9 0 0.3 0 0.6-0.1 1.8-0.2 3.7 0 0.3 0 0.7-0.1 2.2-0.1 4.4 0 5.2 0.4 10.2 0.1 1.3 0.2 2.5 0.1 1.3 0.2 2.5 0.2 1 0.3 1.9 0.2 1.5 0.4 3.1 0.2 1.4 0.5 2.8 0.2 1.1 0.4 2.1 0.2 1.1 0.4 2.3 0.3 1.2 0.6 2.5 0.2 1 0.5 1.9 0.3 1.5 0.7 2.9 0.2 0.9 0.5 1.8 0.4 1.5 0.9 2.9 0.2 0.7 0.4 1.3 0.5 1.7 1.1 3.3 0.3 1 0.7 1.9 0.5 1.3 1 2.7 0.4 0.8 0.7 1.7 0.6 1.4 1.2 2.7 0.4 0.9 0.8 1.8 0.6 1.3 1.2 2.6 0.4 0.8 0.7 1.5 0.7 1.4 1.5 2.8 0.3 0.6 0.6 1.3 0.8 1.4 1.7 2.9 0.3 0.6 0.7 1.2 0.9 1.5 1.7 2.9 0.5 0.6 0.9 1.3 0.9 1.4 1.8 2.7 0.4 0.6 0.8 1.2 0.9 1.3 1.9 2.7 0.3 0.5 0.7 0.9 1.1 1.5 2.2 2.9 0.4 0.5 0.8 1 1.1 1.4 2.2 2.7 0.5 0.5 1 1.1 1.1 1.2 2.2 2.5 0.4 0.5 0.9 1 1.2 1.2 2.4 2.4 0.4 0.5 0.9 1 1.2 1.2 2.5 2.4 0.4 0.4 0.9 0.9 1.3 1.1 2.6 2.3 0.4 0.4 0.9 0.8 1.3 1.1 2.7 2.3 0.5 0.4 1 0.7 1.3 1.2 2.8 2.2 0.4 0.4 0.9 0.7 1.4 1.1 2.9 2.2 0.4 0.3 0.9 0.6 1.5 1 3.1 2.1 0.5 0.3 1 0.6 1.5 1 3 1.9 0.6 0.3 1.2 0.7 1.5 0.9 3 1.7 0.5 0.3 1 0.5 1.6 0.9 3.2 1.8 0.5 0.2 1 0.4 1.6 0.9 3.3 1.7 0.6 0.2 1.2 0.5 1.6 0.7 3.2 1.4 0.1 0 0.1 0 0.5 0 0.9 0 0.2 0 0.3 0 0.2 0 0.3 0 0.5 0 1 0 0 0 0 0 1.7-0.7 3.3-1.4 0.5-0.3 1.1-0.5 1.7-0.8 3.4-1.7 0.5-0.2 1-0.4 1.6-0.9 3.2-1.8 0.5-0.2 1-0.5 1.5-0.8 3-1.7 0.6-0.4 1.2-0.7 1.5-0.9 3-1.9 0.5-0.3 1-0.6 1.6-1.1 3.1-2.1 0.5-0.3 0.9-0.6 1.5-1.1 2.9-2.2 0.5-0.3 0.9-0.7 1.5-1 2.8-2.2 0.5-0.3 1-0.7 1.4-1.2 2.7-2.3 0.5-0.4 0.9-0.8 1.3-1.2 2.6-2.3 0.5-0.5 0.9-0.9 1.3-1.2 2.4-2.4 0.5-0.5 1-1 1.2-1.2 2.4-2.4z"/>
					</g>
					<g id="g22">
						<path id="path24" class="s1" d="m142.9 149.3q0.4-0.5 0.9-1 1.1-1.3 2.2-2.5 0.5-0.6 1-1.1 1.1-1.3 2.2-2.7 0.4-0.5 0.8-1 1.1-1.4 2.2-2.9 0.3-0.4 0.7-0.9 1-1.4 1.9-2.7 0.4-0.6 0.8-1.2 0.9-1.3 1.8-2.7 0.4-0.7 0.8-1.3 0.9-1.4 1.8-2.9 0.4-0.6 0.7-1.2 0.8-1.5 1.6-2.9 0.4-0.7 0.7-1.3 0.8-1.4 1.4-2.8 0.4-0.7 0.8-1.5 0.6-1.3 1.2-2.6 0.4-0.9 0.8-1.8 0.6-1.3 1.2-2.7 0.3-0.9 0.7-1.7 0.5-1.4 1-2.7 0.4-0.9 0.7-1.9 0.6-1.6 1.1-3.3 0.2-0.6 0.4-1.3 0.5-1.4 0.9-2.9 0.3-0.9 0.5-1.8 0.4-1.4 0.7-2.9 0.3-0.9 0.5-1.9 0.3-1.3 0.6-2.5 0.2-1.2 0.4-2.3 0.2-1 0.4-2.1 0.2-1.4 0.5-2.8 0.2-1.6 0.4-3.1 0.1-0.9 0.2-1.9 0.2-1.2 0.3-2.5 0.1-1.2 0.2-2.5 0.4-5 0.4-10.2 0-2.2-0.1-4.4 0-0.4 0-0.7-0.1-1.9-0.2-3.7 0-0.3 0-0.6-0.2-1.9-0.4-3.9 0-0.2 0-0.4-0.2-1.5-0.3-3.1-0.1 0-0.1 0 0-0.5-0.1-0.9c-21.3-19.5-49.7-31.4-80.9-31.4q-0.1 0-0.3 0-0.1 0-0.3 0c-31.1 0-59.5 11.9-80.8 31.4q-0.1 0.4-0.1 0.9 0 0-0.1 0-0.2 1.6-0.3 3.1 0 0.2-0.1 0.4-0.1 2-0.3 3.9 0 0.3 0 0.6-0.1 1.8-0.2 3.7 0 0.3 0 0.7-0.1 2.2-0.1 4.4 0 5.2 0.4 10.2 0.1 1.3 0.2 2.5 0.1 1.3 0.2 2.5 0.2 1 0.3 1.9 0.2 1.5 0.4 3.1 0.2 1.4 0.5 2.8 0.2 1.1 0.4 2.1 0.2 1.1 0.4 2.3 0.3 1.2 0.6 2.5 0.2 1 0.5 1.9 0.3 1.5 0.7 2.9 0.2 0.9 0.5 1.8 0.4 1.5 0.9 2.9 0.2 0.7 0.4 1.3 0.5 1.7 1.1 3.3 0.3 1 0.7 1.9 0.5 1.3 1 2.7 0.4 0.8 0.7 1.7 0.6 1.4 1.2 2.7 0.4 0.9 0.8 1.8 0.6 1.3 1.2 2.6 0.4 0.8 0.7 1.5 0.7 1.4 1.5 2.8 0.3 0.6 0.6 1.3 0.8 1.4 1.7 2.9 0.3 0.6 0.7 1.2 0.9 1.5 1.7 2.9 0.5 0.6 0.9 1.3 0.9 1.4 1.8 2.7 0.4 0.6 0.8 1.2 0.9 1.3 1.9 2.7 0.3 0.5 0.7 0.9 1.1 1.5 2.2 2.9 0.4 0.5 0.8 1 1.1 1.4 2.2 2.7 0.5 0.5 1 1.1 1.1 1.2 2.2 2.5 0.4 0.5 0.9 1 1.2 1.2 2.4 2.4 0.4 0.5 0.9 1 1.2 1.2 2.5 2.4 0.4 0.4 0.9 0.9 1.3 1.1 2.6 2.3 0.4 0.4 0.9 0.8 1.3 1.1 2.7 2.3 0.5 0.4 1 0.7 1.3 1.2 2.8 2.2 0.4 0.4 0.9 0.7 1.4 1.1 2.9 2.2 0.4 0.3 0.9 0.6 1.5 1 3.1 2.1 0.5 0.3 1 0.6 1.5 1 3 1.9 0.6 0.3 1.2 0.7 1.5 0.9 3 1.7 0.5 0.3 1 0.5 1.6 0.9 3.2 1.8 0.5 0.2 1 0.4 1.6 0.9 3.3 1.7 0.6 0.2 1.2 0.5 1.6 0.7 3.2 1.4 0.1 0 0.1 0 0.5 0 0.9 0 0.2 0 0.3 0 0.2 0 0.3 0 0.5 0 1 0 0 0 0 0 1.7-0.7 3.3-1.4 0.5-0.3 1.1-0.5 1.7-0.8 3.4-1.7 0.5-0.2 1-0.4 1.6-0.9 3.2-1.8 0.5-0.2 1-0.5 1.5-0.8 3-1.7 0.6-0.4 1.2-0.7 1.5-0.9 3-1.9 0.5-0.3 1-0.6 1.6-1.1 3.1-2.1 0.5-0.3 0.9-0.6 1.5-1.1 2.9-2.2 0.5-0.3 0.9-0.7 1.5-1 2.8-2.2 0.5-0.3 1-0.7 1.4-1.2 2.7-2.3 0.5-0.4 0.9-0.8 1.3-1.2 2.6-2.3 0.5-0.5 0.9-0.9 1.3-1.2 2.4-2.4 0.5-0.5 1-1 1.2-1.2 2.4-2.4z"/>
					</g>
					<g id="g26">
						<path id="path28" class="s2" d="m95.8 167q-1.5-0.7-3-1.4l-0.9-0.4q-1.4-0.8-2.9-1.6l-0.9-0.5q-1.2-0.7-2.5-1.4l-1.2-0.7q-1.3-0.8-2.6-1.7l-1.1-0.6q-1.4-0.9-2.7-1.9l-0.8-0.5q-1.3-1-2.6-2l-0.9-0.6q-1.2-0.9-2.5-2l-0.8-0.6q-1.3-1-2.5-2.1l-0.8-0.7q-1.1-1-2.2-2l-1-0.9q-1-1-1.9-1.9l-1.1-1.1q-1-1-1.9-2l-1.1-1.1q-0.8-1-1.7-2l-1.1-1.2q-1-1.2-1.9-2.3l-0.8-1.1q-1-1.3-2-2.6l-0.6-0.8q-0.8-1.1-1.6-2.3l-0.9-1.2q-0.7-1-1.3-2c0 0-1-1.4-1.1-1.6q-0.7-1.1-1.4-2.3l-0.8-1.4q-0.6-1.1-1.3-2.3l-0.8-1.4q-0.5-1-0.9-2c0 0-0.9-1.7-1-1.9q-0.4-0.8-0.8-1.7l-0.7-1.5q-0.2-0.3-0.3-0.7-0.4-0.9-0.8-1.8l-0.6-1.5q-0.2-0.4-0.3-0.7-0.3-0.9-0.6-1.7l-0.6-1.6q-0.2-0.4-0.3-0.8-0.5-1.3-0.9-2.7l-0.5-1.5q-0.3-0.9-0.6-1.8l-0.4-1.6q-0.1-0.4-0.3-0.8-0.2-0.9-0.4-1.8l-0.4-1.6q-0.1-0.5-0.2-0.9-0.2-0.7-0.3-1.4l-0.4-1.8q-0.1-0.6-0.3-1.1 0-0.5-0.1-0.9l-0.3-1.8q-0.2-0.8-0.3-1.7-0.2-1.1-0.3-2.1l-0.2-1.6q-0.1-0.4-0.1-0.8-0.1-0.6-0.1-1.3l-0.2-1.8q-0.1-0.7-0.1-1.4c-0.3-3-0.4-6.1-0.4-9.2q0-2 0.1-4v-0.6q0.1-1.7 0.2-3.4v-0.4q0.1-1.4 0.2-2.7c19.1-15.9 43.1-24.7 68.1-24.7 0.1 0 0.5 0 0.5 0q0.2 0 0.4 0c25 0 49 8.8 68.1 24.7q0.1 1.3 0.2 2.6v0.5c0.1 1.2 0.1 2.3 0.2 3.4v0.7q0.1 1.9 0.1 3.9c0 3.1-0.1 6.2-0.4 9.2q0 0.7-0.1 1.4l-0.2 1.8q0 0.7-0.1 1.3-0.1 0.4-0.1 0.8l-0.2 1.6q-0.1 1-0.3 2.1-0.1 0.8-0.3 1.7l-0.3 1.8q-0.1 0.4-0.2 0.9-0.1 0.5-0.2 1.1l-0.4 1.8q-0.1 0.7-0.3 1.4-0.1 0.4-0.2 0.9l-0.4 1.6q-0.2 0.9-0.5 1.8-0.1 0.4-0.2 0.8l-0.4 1.5q-0.3 1-0.6 1.9l-0.5 1.5q-0.4 1.4-0.9 2.7-0.1 0.4-0.3 0.8l-0.6 1.6q-0.3 0.8-0.6 1.6-0.2 0.4-0.3 0.8l-0.6 1.5q-0.4 0.9-0.8 1.8-0.2 0.4-0.3 0.8l-0.7 1.4q-0.4 0.9-0.8 1.7c-0.1 0.2-1 1.9-1 1.9q-0.4 1-0.9 2l-0.9 1.4q-0.6 1.2-1.2 2.3l-0.8 1.3q-0.7 1.2-1.5 2.4c-0.1 0.2-1 1.6-1 1.6q-0.6 1-1.3 2l-0.9 1.2q-0.8 1.2-1.6 2.3l-0.6 0.8q-1 1.3-2 2.6l-0.8 1.1q-1 1.1-1.9 2.3l-1.1 1.2q-0.9 1-1.7 2l-1.1 1.1q-0.9 1-1.9 2l-1.1 1.1q-1 1-1.9 1.9l-1 0.9q-1.1 1-2.2 2l-0.8 0.7q-1.2 1.1-2.5 2.1l-0.8 0.6c-0.9 0.7-1.7 1.4-2.5 2l-0.9 0.6q-1.3 1-2.6 2l-0.8 0.5q-1.4 1-2.8 1.9l-0.9 0.6c-0.9 0.6-1.8 1.1-2.7 1.7l-1.2 0.7q-1.3 0.7-2.5 1.4l-1 0.5q-1.4 0.8-2.9 1.6l-0.8 0.4q-1.5 0.7-3.1 1.4l-0.1 0.1z"/>
					</g>
					<g id="g30">
						<path id="path32" class="s3" d="m95.8 167q-1.5-0.7-3-1.4l-0.9-0.4q-1.4-0.8-2.9-1.6l-0.9-0.5q-1.2-0.7-2.5-1.4l-1.2-0.7q-1.3-0.8-2.6-1.7l-1.1-0.6q-1.4-0.9-2.7-1.9l-0.8-0.5q-1.3-1-2.6-2l-0.9-0.6q-1.2-0.9-2.5-2l-0.8-0.6q-1.3-1-2.5-2.1l-0.8-0.7q-1.1-1-2.2-2l-1-0.9q-1-1-1.9-1.9l-1.1-1.1q-1-1-1.9-2l-1.1-1.1q-0.8-1-1.7-2l-1.1-1.2q-1-1.2-1.9-2.3l-0.8-1.1q-1-1.3-2-2.6l-0.6-0.8q-0.8-1.1-1.6-2.3l-0.9-1.2q-0.7-1-1.3-2c0 0-1-1.4-1.1-1.6q-0.7-1.1-1.4-2.3l-0.8-1.4q-0.6-1.1-1.3-2.3l-0.8-1.4q-0.5-1-0.9-2c0 0-0.9-1.7-1-1.9q-0.4-0.8-0.8-1.7l-0.7-1.5q-0.2-0.3-0.3-0.7-0.4-0.9-0.8-1.8l-0.6-1.5q-0.2-0.4-0.3-0.7-0.3-0.9-0.6-1.7l-0.6-1.6q-0.2-0.4-0.3-0.8-0.5-1.3-0.9-2.7l-0.5-1.5q-0.3-0.9-0.6-1.8l-0.4-1.6q-0.1-0.4-0.3-0.8-0.2-0.9-0.4-1.8l-0.4-1.6q-0.1-0.5-0.2-0.9-0.2-0.7-0.3-1.4l-0.4-1.8q-0.1-0.6-0.3-1.1 0-0.5-0.1-0.9l-0.3-1.8q-0.2-0.8-0.3-1.7-0.2-1.1-0.3-2.1l-0.2-1.6q-0.1-0.4-0.1-0.8-0.1-0.6-0.1-1.3l-0.2-1.8q-0.1-0.7-0.1-1.4c-0.3-3-0.4-6.1-0.4-9.2q0-2 0.1-4v-0.6q0.1-1.7 0.2-3.4v-0.4q0.1-1.4 0.2-2.7c19.1-15.9 43.1-24.7 68.1-24.7 0.1 0 0.5 0 0.5 0q0.2 0 0.4 0c25 0 49 8.8 68.1 24.7q0.1 1.3 0.2 2.6v0.5c0.1 1.2 0.1 2.3 0.2 3.4v0.7q0.1 1.9 0.1 3.9c0 3.1-0.1 6.2-0.4 9.2q0 0.7-0.1 1.4l-0.2 1.8q0 0.7-0.1 1.3-0.1 0.4-0.1 0.8l-0.2 1.6q-0.1 1-0.3 2.1-0.1 0.8-0.3 1.7l-0.3 1.8q-0.1 0.4-0.2 0.9-0.1 0.5-0.2 1.1l-0.4 1.8q-0.1 0.7-0.3 1.4-0.1 0.4-0.2 0.9l-0.4 1.6q-0.2 0.9-0.5 1.8-0.1 0.4-0.2 0.8l-0.4 1.5q-0.3 1-0.6 1.9l-0.5 1.5q-0.4 1.4-0.9 2.7-0.1 0.4-0.3 0.8l-0.6 1.6q-0.3 0.8-0.6 1.6-0.2 0.4-0.3 0.8l-0.6 1.5q-0.4 0.9-0.8 1.8-0.2 0.4-0.3 0.8l-0.7 1.4q-0.4 0.9-0.8 1.7c-0.1 0.2-1 1.9-1 1.9q-0.4 1-0.9 2l-0.9 1.4q-0.6 1.2-1.2 2.3l-0.8 1.3q-0.7 1.2-1.5 2.4c-0.1 0.2-1 1.6-1 1.6q-0.6 1-1.3 2l-0.9 1.2q-0.8 1.2-1.6 2.3l-0.6 0.8q-1 1.3-2 2.6l-0.8 1.1q-1 1.1-1.9 2.3l-1.1 1.2q-0.9 1-1.7 2l-1.1 1.1q-0.9 1-1.9 2l-1.1 1.1q-1 1-1.9 1.9l-1 0.9q-1.1 1-2.2 2l-0.8 0.7q-1.2 1.1-2.5 2.1l-0.8 0.6c-0.9 0.7-1.7 1.4-2.5 2l-0.9 0.6q-1.3 1-2.6 2l-0.8 0.5q-1.4 1-2.8 1.9l-0.9 0.6c-0.9 0.6-1.8 1.1-2.7 1.7l-1.2 0.7q-1.3 0.7-2.5 1.4l-1 0.5q-1.4 0.8-2.9 1.6l-0.8 0.4q-1.5 0.7-3.1 1.4l-0.1 0.1z"/>
					</g>
					<g id="g34">
						<path id="path36" class="s4" d="m134.6 84.4c0 0 17 8.1 16.2 17.4-0.9 9.4-9.2 19.5-9.2 19.5l-9.8 13c0 0 9.8-11 8.1-15.6-1.6-4.7-10.4-6.9-10.4-6.9 0 0 5.6-20.8 5.1-27.4z"/>
					</g>
					<g id="g38">
						<path id="path40" class="s3" d="m134.6 84.4c0 0 17 8.1 16.2 17.4-0.9 9.4-9.2 19.5-9.2 19.5l-9.8 13c0 0 9.8-11 8.1-15.6-1.6-4.7-10.4-6.9-10.4-6.9 0 0 5.6-20.8 5.1-27.4z"/>
					</g>
					<g id="g42">
						<path id="path44" class="s4" d="m55.1 92.1c0 0-17.9-0.6-19.9-9.8-1.9-9.2 1.8-17.3 1.8-17.3l8.1-17.4c0 0-7.4 11.4-4.4 15.4 2.9 4 21.6 4.8 21.6 4.8 0 0-9.7 18.1-7.2 24.3z"/>
					</g>
					<g id="g46">
						<path id="path48" class="s3" d="m55.1 92.1c0 0-17.9-0.6-19.9-9.8-1.9-9.2 1.8-17.3 1.8-17.3l8.1-17.4c0 0-7.4 11.4-4.4 15.4 2.9 4 21.6 4.8 21.6 4.8 0 0-9.7 18.1-7.2 24.3z"/>
					</g>
					<g id="g50">
						<path id="path52" class="s0" d="m136.8 88.4c0 22.6-18.3 40.9-40.9 40.9-22.5 0-40.8-18.3-40.8-40.9 0-22.6 18.3-40.9 40.8-40.9 22.6 0 40.9 18.3 40.9 40.9z"/>
					</g>
					<g id="g54">
						<path id="path56" class="s1" d="m136.8 88.4c0 22.6-18.3 40.9-40.9 40.9-22.5 0-40.8-18.3-40.8-40.9 0-22.6 18.3-40.9 40.8-40.9 22.6 0 40.9 18.3 40.9 40.9z"/>
					</g>
					<g id="g58">
						<path id="path60" class="s3" d="m94.9 161.3l-0.9-0.5c-0.8-0.4-1.7-0.9-2.6-1.4l-1-0.5c-0.7-0.4-1.5-0.9-2.3-1.3l-1.3-0.8c-0.7-0.4-1.5-0.9-2.3-1.4l-1.2-0.8c-0.8-0.5-1.7-1.1-2.6-1.7l-0.8-0.6c-0.8-0.6-1.6-1.2-2.5-1.8l-0.8-0.6c-0.8-0.6-1.5-1.2-2.3-1.8l-1-0.8c-0.6-0.6-1.4-1.2-2.1-1.8l-1-0.9c-0.6-0.5-1.2-1.1-1.9-1.7l-1.1-1c-0.6-0.6-1.2-1.1-1.8-1.7l-1.2-1.2c-0.5-0.5-1-1.1-1.6-1.7l-1.2-1.3c-0.5-0.5-1-1.1-1.5-1.7l-1.2-1.4c-0.5-0.6-1.1-1.4-1.7-2.1l-0.9-1.1c-0.6-0.8-1.2-1.6-1.9-2.5l-0.6-0.8c-0.4-0.6-0.9-1.3-1.4-1.9l-1-1.4c-0.4-0.6-0.8-1.2-1.2-1.9 0-0.1-0.9-1.3-1-1.5q-0.6-1.1-1.2-2.1l-1-1.5c-0.3-0.7-0.7-1.4-1.1-2.1l-0.9-1.6c-0.2-0.5-0.5-1-0.8-1.6 0 0-0.9-1.8-1-2q-0.3-0.7-0.7-1.5c0 0-1-2.1-1-2.3q-0.4-0.7-0.7-1.5c0 0-0.9-2.1-0.9-2.3q-0.3-0.8-0.6-1.5c0 0-0.8-2.2-0.9-2.4q-0.4-1.2-0.8-2.4l-0.6-1.7c-0.1-0.5-0.3-1-0.4-1.6 0 0-0.7-2.2-0.7-2.4q-0.2-0.8-0.4-1.5c0 0-0.6-2.4-0.7-2.6q-0.1-0.6-0.2-1.2l-0.4-2q-0.2-0.5-0.2-1c-0.1-0.2-0.5-2.6-0.5-2.6q-0.1-0.8-0.3-1.6-0.1-0.8-0.2-1.7l-0.2-1.9c-0.1-0.2-0.1-0.4-0.1-0.6q-0.1-0.5-0.1-1.1l-0.2-2.2q-0.1-0.5-0.2-1.1c-0.2-2.9-0.3-5.8-0.3-8.8q0-1.9 0.1-3.8v-0.6q0.1-1.6 0.2-3.2c0 0 0-0.9 0-1 18-14.4 40.4-22.4 63.5-22.4h0.5 0.4c23.1 0 45.5 8 63.4 22.4 0.1 0.1 0.1 1 0.1 1q0.1 1.6 0.2 3.2v0.7c0.1 1.2 0.1 2.4 0.1 3.7 0 3-0.1 5.9-0.4 8.8q0 0.6-0.1 1.1l-0.2 2.2q0 0.5-0.1 1.1c0 0.2-0.3 2.5-0.3 2.5q-0.1 0.8-0.2 1.7-0.2 0.8-0.3 1.5c0 0-0.4 2.5-0.5 2.8q-0.1 0.4-0.2 0.8l-0.4 2c-0.1 0.5-0.2 0.9-0.3 1.3 0 0.2-0.6 2.6-0.6 2.6q-0.2 0.8-0.4 1.5c0 0.2-0.7 2.5-0.7 2.5q-0.2 0.8-0.5 1.6l-0.5 1.6q-0.4 1.2-0.8 2.4c-0.1 0.2-0.9 2.3-0.9 2.3-0.2 0.6-0.4 1.1-0.6 1.6 0 0.2-0.9 2.2-0.9 2.2-0.2 0.6-0.4 1.1-0.7 1.6-0.1 0.2-1 2.4-1 2.4q-0.4 0.7-0.7 1.4c-0.1 0.2-1 2-1 2q-0.4 0.8-0.9 1.7l-0.8 1.4c-0.4 0.8-0.8 1.5-1.2 2.2l-0.8 1.4q-0.7 1.1-1.3 2.2c-0.2 0.2-1.1 1.6-1.1 1.6q-0.6 0.9-1.2 1.8l-0.9 1.4q-0.7 1-1.5 2l-0.5 0.7c-0.7 0.9-1.3 1.8-1.9 2.6l-1 1.1q-0.8 1-1.7 2.1l-1.2 1.3q-0.7 0.9-1.5 1.7l-1.1 1.3q-0.9 0.9-1.7 1.7l-1.2 1.2q-0.9 0.9-1.7 1.7l-1.1 1q-1 0.9-2 1.8l-0.7 0.6c-0.9 0.8-1.6 1.4-2.4 2.1l-1 0.7q-1.1 1-2.2 1.8l-0.8 0.6c-0.9 0.6-1.7 1.3-2.6 1.9l-0.7 0.4c-0.9 0.7-1.8 1.3-2.7 1.9l-1.1 0.6c-0.8 0.6-1.6 1.1-2.4 1.6l-1.3 0.7q-1.1 0.7-2.3 1.3l-0.8 0.5c-1 0.5-1.9 1-2.8 1.5l-0.8 0.4q-0.5 0.2-1.1 0.5-0.5-0.3-1-0.5z"/>
					</g>
					<g id="g62">
						<path id="path64" class="s4" d="m101.4 52.5c22.5 3.3 42.6 16.7 56.5 28.5q0 0 0.1 0c0-0.3 0.4-2.8 0.4-2.8q0.2-0.7 0.3-1.5 0.1-0.9 0.2-1.7c0 0 0.3-2.3 0.4-2.5q0-0.6 0.1-1.1l0.2-2.2q0-0.5 0.1-1.1c0.2-2.9 0.3-5.8 0.3-8.8 0-1.3 0-2.5-0.1-3.7v-0.7q0-1.6-0.2-3.2c0 0 0-0.9 0-1-18-14.4-40.4-22.4-63.5-22.4h-0.4-0.5c-10.9 0-21.8 1.8-32.1 5.3-11.3 3.7-23.8 7.5-28.4 37.9 3.3-15.9 24-25.3 66.6-19z"/>
					</g>
					<g id="g66">
						<path id="path68" class="s5" d="m101.4 52.5c22.5 3.3 42.6 16.7 56.5 28.5q0 0 0.1 0c0-0.3 0.4-2.8 0.4-2.8q0.2-0.7 0.3-1.5 0.1-0.9 0.2-1.7c0 0 0.3-2.3 0.4-2.5q0-0.6 0.1-1.1l0.2-2.2q0-0.5 0.1-1.1c0.2-2.9 0.3-5.8 0.3-8.8 0-1.3 0-2.5-0.1-3.7v-0.7q0-1.6-0.2-3.2c0 0 0-0.9 0-1-18-14.4-40.4-22.4-63.5-22.4h-0.4-0.5c-10.9 0-21.8 1.8-32.1 5.3-11.3 3.7-23.8 7.5-28.4 37.9 3.3-15.9 24-25.3 66.6-19z"/>
					</g>
					<g id="g70">
						<path id="path72" class="s4" d="m85.3 122.5c-17.8-4.7-35-14.5-46.2-24.5 0.3 0.7 0.7 1.7 0.7 1.7q0.2 0.7 0.5 1.5c0.1 0.2 1 2.3 1 2.3q0.3 0.8 0.6 1.5c0.1 0.2 1.1 2.3 1.1 2.3q0.3 0.8 0.7 1.5c0.1 0.2 1 2 1 2 0.2 0.6 0.5 1.1 0.8 1.6 0 0 3.9 6.8 7.3 11.2 6.5 8.4 18.9 21.2 36.1 24.5 15.7 3 24.7 1.7 29.9-0.5l0.3-0.2c0.8-0.7 1.6-1.3 2.4-2.1l0.8-0.6q1-0.9 2-1.8l1-1q0.9-0.8 1.7-1.7l1.2-1.2q0.9-0.8 1.7-1.7l1.2-1.3q0.7-0.8 1.5-1.7l1.2-1.3q0.8-1.1 1.7-2.1l0.9-1.1c0.7-0.8 1.3-1.7 2-2.6l0.5-0.7q0.7-1 1.4-2l1-1.4q0.6-0.9 1.2-1.8c-9.5 6.5-32.2 7.8-57.2 1.2z"/>
					</g>
					<g id="g74">
						<path id="path76" class="s5" d="m85.3 122.5c-17.8-4.7-35-14.5-46.2-24.5 0.3 0.7 0.7 1.7 0.7 1.7q0.2 0.7 0.5 1.5c0.1 0.2 1 2.3 1 2.3q0.3 0.8 0.6 1.5c0.1 0.2 1.1 2.3 1.1 2.3q0.3 0.8 0.7 1.5c0.1 0.2 1 2 1 2 0.2 0.6 0.5 1.1 0.8 1.6 0 0 3.9 6.8 7.3 11.2 6.5 8.4 18.9 21.2 36.1 24.5 15.7 3 24.7 1.7 29.9-0.5l0.3-0.2c0.8-0.7 1.6-1.3 2.4-2.1l0.8-0.6q1-0.9 2-1.8l1-1q0.9-0.8 1.7-1.7l1.2-1.2q0.9-0.8 1.7-1.7l1.2-1.3q0.7-0.8 1.5-1.7l1.2-1.3q0.8-1.1 1.7-2.1l0.9-1.1c0.7-0.8 1.3-1.7 2-2.6l0.5-0.7q0.7-1 1.4-2l1-1.4q0.6-0.9 1.2-1.8c-9.5 6.5-32.2 7.8-57.2 1.2z"/>
					</g>
					<g id="g78">
						<path id="path80" class="s2" d="m121.4 94.9c2.1 8.2-2.4 14.4-13.3 17.1l-21.3 5.3-11.9-47.6 20.2-5c10.3-2.6 16.9 1 18.7 8.4 1.2 4.8 0 9-2.9 11.9 5.1 0.5 9 3.9 10.5 9.9zm-34.9-19.3l2.8 11.2 9.5-2.3c4.6-1.2 6.7-3.7 5.8-7.5-1-3.7-4-4.9-8.6-3.7zm25 20.5c-1-4.1-4.1-5.3-9.1-4.1l-11.1 2.8 2.9 11.8 11.2-2.8c4.9-1.2 7.1-3.7 6.1-7.7z"/>
					</g>
					<g id="g82">
						<path id="path84" class="s2" d="m100.3 108.9l3.1 12.5-6.2 1.5-3.1-12.5z"/>
					</g>
					<g id="g86">
						<path id="path88" class="s2" d="m87.6 57.8l3.1 12.5-6.2 1.5-3.1-12.5z"/>
					</g>
					<g id="g90">
						<path id="path92" class="s2" d="m109.6 106.6l3.1 12.5-6.2 1.5-3.1-12.5z"/>
					</g>
					<g id="g94">
						<path id="path96" class="s2" d="m96.8 55.5l3.1 12.5-6.2 1.5-3.1-12.5z"/>
					</g>
				</g>
			</g>
		</g>
	</g>
</svg>