<svg id="icon" enable-background="new 0 0 64 64" viewBox="0 0 64 64" xmlns="http://www.w3.org/2000/svg"><g><g><path d="m55.3 62h-13.6c-3.7 0-6.7-3-6.7-6.7v-18.3c0-1.1.9-2 2-2h18.3c3.7 0 6.7 3 6.7 6.7v13.6c0 3.7-3 6.7-6.7 6.7zm-16.3-23v16.3c0 1.5 1.2 2.7 2.7 2.7h13.6c1.5 0 2.7-1.2 2.7-2.7v-13.6c0-1.5-1.2-2.7-2.7-2.7z"/></g><g><path d="m22.3 62h-13.6c-3.7 0-6.7-3-6.7-6.7v-13.6c0-3.7 3-6.7 6.7-6.7h18.3c1.1 0 2 .9 2 2v18.3c0 3.7-3 6.7-6.7 6.7zm-13.6-23c-1.5 0-2.7 1.2-2.7 2.7v13.6c0 1.5 1.2 2.7 2.7 2.7h13.6c1.5 0 2.7-1.2 2.7-2.7v-16.3z"/></g><g><path d="m55.3 29h-18.3c-1.1 0-2-.9-2-2v-18.3c0-3.7 3-6.7 6.7-6.7h13.6c3.7 0 6.7 3 6.7 6.7v13.6c0 3.7-3 6.7-6.7 6.7zm-16.3-4h16.3c1.5 0 2.7-1.2 2.7-2.7v-13.6c0-1.5-1.2-2.7-2.7-2.7h-13.6c-1.5 0-2.7 1.2-2.7 2.7z"/></g><g><path d="m27 29h-18.3c-3.7 0-6.7-3-6.7-6.7v-13.6c0-3.7 3-6.7 6.7-6.7h13.6c3.7 0 6.7 3 6.7 6.7v18.3c0 1.1-.9 2-2 2zm-18.3-23c-1.5 0-2.7 1.2-2.7 2.7v13.6c0 1.5 1.2 2.7 2.7 2.7h16.3v-16.3c0-1.5-1.2-2.7-2.7-2.7z"/></g></g></svg>