<svg id="icon" viewBox="-25 0 511 511.99737" xmlns="http://www.w3.org/2000/svg"><path d="m448.5 204.800781h-38.402344v-64c0-7.070312-5.730468-12.800781-12.800781-12.800781h-51.199219c-7.066406 0-12.796875 5.730469-12.796875 12.800781 0 7.066407 5.730469 12.796875 12.796875 12.796875h38.402344v51.199219h-332.800781c-14.140625 0-25.601563-11.460937-25.601563-25.597656 0-14.140625 11.460938-25.601563 25.601563-25.601563h64c7.070312 0 12.800781-5.730468 12.800781-12.800781 0-7.066406-5.730469-12.796875-12.800781-12.796875h-64c-28.265625.027344-51.171875 22.933594-51.199219 51.199219v281.597656c.03125 28.265625 22.933594 51.167969 51.199219 51.199219h396.800781c7.066406 0 12.796875-5.730469 12.796875-12.796875v-281.601563c0-7.066406-5.730469-12.796875-12.796875-12.796875zm-396.800781 281.597657c-14.132813-.011719-25.585938-11.464844-25.601563-25.597657v-237.519531c7.746094 4.609375 16.585938 7.066406 25.601563 7.117188h384v76.800781h-89.601563c-7.066406 0-12.796875 5.730469-12.796875 12.800781v76.800781c0 7.066407 5.730469 12.796875 12.796875 12.796875h89.601563v76.800782zm384-102.398438h-76.800781v-51.199219h76.800781zm0 0"/><path d="m222.898438 176.402344c4.679687 3.730468 11.320312 3.730468 16 0l64-51.199219c5.523437-4.417969 6.417968-12.480469 2-18-4.417969-5.523437-12.476563-6.421875-18-2l-43.199219 34.574219v-126.976563c0-7.070312-5.730469-12.800781-12.800781-12.800781-7.066407 0-12.796876 5.730469-12.796876 12.800781v126.972657l-43.199218-34.566407c-5.523438-4.421875-13.582032-3.523437-18 2-4.417969 5.519531-3.523438 13.582031 2 18zm0 0"/></svg>