<svg id="icon" viewBox="-25 0 511 511.99671" xmlns="http://www.w3.org/2000/svg"><path d="m448.496094 204.800781h-38.398438v-64.003906c.003906-7.0625-5.71875-12.792969-12.785156-12.796875-.003906 0-.011719 0-.015625 0h-102.402344c-7.066406 0-12.796875 5.730469-12.796875 12.796875 0 7.070313 5.730469 12.800781 12.796875 12.800781h89.601563v51.199219h-332.796875c-14.140625 0-25.601563-11.460937-25.601563-25.597656 0-14.140625 11.460938-25.601563 25.601563-25.601563h115.199219c7.070312 0 12.800781-5.730468 12.800781-12.800781s-5.730469-12.800781-12.800781-12.800781h-115.199219c-28.265625.027344-51.171875 22.933594-51.199219 51.203125v281.597656c.03125 28.265625 22.933594 51.167969 51.199219 51.199219h396.796875c7.070312 0 12.800781-5.730469 12.800781-12.800782v-281.597656c.003906-7.0625-5.71875-12.792968-12.785156-12.796875-.003907 0-.007813 0-.015625 0zm-396.796875 281.597657c-14.132813-.015626-25.585938-11.46875-25.601563-25.601563v-237.519531c7.746094 4.609375 16.585938 7.070312 25.601563 7.121094h384v76.800781h-89.601563c-7.0625-.003907-12.792968 5.71875-12.796875 12.785156v.015625 76.800781c0 7.066407 5.730469 12.796875 12.796875 12.796875h89.601563v76.800782zm383.996093-102.398438h-76.796874v-51.203125h76.796874zm0 0"/><path d="m174.898438 73.996094 43.199218-34.574219v126.976563c0 7.070312 5.730469 12.800781 12.800782 12.800781 7.066406 0 12.796874-5.730469 12.796874-12.800781v-126.976563l43.203126 34.570313c5.519531 4.417968 13.578124 3.523437 18-2 4.417968-5.523438 3.519531-13.582032-2.003907-18l-63.996093-51.199219c-4.683594-3.722657-11.316407-3.722657-16 0l-64 51.199219c-5.523438 4.417968-6.421876 12.476562-2 18 4.417968 5.523437 12.476562 6.417968 17.996093 2v.003906zm0 0"/></svg>