<?xml version="1.0" encoding="iso-8859-1"?>
<!-- Generator: Adobe Illustrator 19.0.0, SVG Export Plug-In . SVG Version: 6.00 Build 0)  -->
<svg version="1.1" id="icon" xmlns="http://www.w3.org/2000/svg" xmlns:xlink="http://www.w3.org/1999/xlink" x="0px" y="0px"
	 viewBox="0 0 512 512" xml:space="preserve">
<g>
	<g>
		<g>
			<path d="M189.217,0H33.38C14.97,0,0,14.982,0,33.391v155.826c0,18.41,14.982,33.391,33.391,33.391h155.826
				c18.41,0,33.391-14.982,33.391-33.391V33.391C222.609,14.982,207.627,0,189.217,0z M200.348,189.217
				c0,6.133-4.998,11.13-11.13,11.13H33.391c-6.133,0-11.13-4.998-11.13-11.13V33.391c0-6.133,4.986-11.13,11.119-11.13h155.837
				c6.133,0,11.13,4.998,11.13,11.13V189.217z"/>
			<path d="M478.609,0H322.783c-18.41,0-33.391,14.982-33.391,33.391v155.826
				c0,18.41,14.982,33.391,33.391,33.391h155.826c18.41,0,33.391-14.982,33.391-33.391V33.391C512,14.982,497.018,0,478.609,0z
				 M489.739,189.217c0,6.133-4.986,11.13-11.13,11.13H322.783c-6.144,0-11.13-4.998-11.13-11.13V33.391
				c0-6.133,4.986-11.13,11.13-11.13h155.826c6.144,0,11.13,4.998,11.13,11.13V189.217z"/>
			<path d="M189.217,289.391H33.38C14.97,289.391,0,304.373,0,322.783v155.826
				C0,497.018,14.982,512,33.391,512h155.826c18.41,0,33.391-14.982,33.391-33.391V322.783
				C222.609,304.373,207.627,289.391,189.217,289.391z M200.348,478.609c0,6.144-4.998,11.13-11.13,11.13H33.391
				c-6.133,0-11.13-4.986-11.13-11.13V322.783c0-6.144,4.986-11.13,11.119-11.13h155.837c6.133,0,11.13,4.986,11.13,11.13V478.609z"
				/>
			<path d="M478.609,289.391H322.783c-18.41,0-33.391,14.982-33.391,33.391v155.826
				c0,18.41,14.982,33.391,33.391,33.391h155.826c18.41,0,33.391-14.982,33.391-33.391V322.783
				C512,304.373,497.018,289.391,478.609,289.391z M489.739,478.609c0,6.144-4.986,11.13-11.13,11.13H322.783
				c-6.144,0-11.13-4.986-11.13-11.13V322.783c0-6.144,4.986-11.13,11.13-11.13h155.826c6.144,0,11.13,4.986,11.13,11.13V478.609z"
				/>
		</g>
	</g>
</g>
<g>
</g>
<g>
</g>
<g>
</g>
<g>
</g>
<g>
</g>
<g>
</g>
<g>
</g>
<g>
</g>
<g>
</g>
<g>
</g>
<g>
</g>
<g>
</g>
<g>
</g>
<g>
</g>
<g>
</g>
</svg>
