<?xml version="1.0" encoding="utf-8"?>
<!--License: CC Attribution. Made by wishforge.games: https://www.wishforge.games/-->
<svg version="1.1" id="Icons" xmlns="http://www.w3.org/2000/svg" xmlns:xlink="http://www.w3.org/1999/xlink" viewBox="0 0 32 32" xml:space="preserve">
  <g fill="#FFFFFF" stroke="#FFFFFF">
    <path d="M25.9,11c0-0.2,0.1-0.3,0.1-0.5C26,9.1,24.9,8,23.5,8h-15C7.1,8,6,9.1,6,10.5c0,0.2,0,0.3,0.1,0.5H25.9z"/>
    <path d="M8.5,6h5.2l-1.4-3.5C11.9,1.6,11,1,10.1,1c-0.8,0-1.5,0.4-2,1.1C7.6,2.7,7.5,3.5,7.8,4.3L8.5,6z"/>
    <path d="M26.4,13H5.6C4.6,14.8,4,16.9,4,19c0,2.7,0.9,5,2.5,7l-0.2,0.2c-0.5,0.5-0.7,1.1-0.7,1.8c0,0.7,0.3,1.3,0.7,1.8
		c0.5,0.5,1.1,0.7,1.8,0.7c0.7,0,1.3-0.3,1.8-0.7l0.8-0.8c3.3,1.4,7.5,1.4,10.8,0l0.8,0.8c1,1,2.6,1,3.5,0s1-2.6,0-3.5L25.5,26
		c1.6-1.9,2.5-4.3,2.5-7C28,16.9,27.4,14.8,26.4,13z"/>
  </g>
</svg>
