<svg id="Layer_1" enable-background="new 0 0 511 511" height="512" viewBox="0 0 511 511" width="512" fill="gray" xmlns="http://www.w3.org/2000/svg"><g><path d="m128 103.5h15v-16.5h16.5v-15h-16.5v-16.5h-15v16.5h-16.5v15h16.5z"/><path d="m432 111.5h15v-16.5h16.5v-15h-16.5v-16.5h-15v16.5h-16.5v15h16.5z"/><path d="m215.5 368h16v15h-16z"/><path d="m247.5 368h16v15h-16z"/><path d="m279.5 368h16v15h-16z"/><path d="m443.5 304h-4.5v-64h-32v-48h-96v-16.5c0-.276.225-.5.5-.5h112c8.547 0 15.5-6.953 15.5-15.5v-24c0-8.547-6.953-15.5-15.5-15.5h-32c-.275 0-.5-.224-.5-.5v-16h-15v16c0 8.547 6.953 15.5 15.5 15.5h32c.275 0 .5.224.5.5v24c0 .276-.225.5-.5.5h-112c-8.547 0-15.5 6.953-15.5 15.5v16.5h-56.5v15h56.5v16.5h15v-16.5h81v33h-288.5c-9.098 0-16.5-7.402-16.5-16.5s7.402-16.5 16.5-16.5h16v-15h-16c-17.369 0-31.5 14.131-31.5 31.5v256c0 17.369 14.131 31.5 31.5 31.5h335.5v-104h8.5c12.958 0 23.5-10.542 23.5-23.5v-52c0-15.164-12.337-27.5-27.5-27.5zm-19.5 192h-320.5c-9.098 0-16.5-7.402-16.5-16.5v-229.181c4.802 2.965 10.454 4.681 16.5 4.681h320.5v89h-17v-72h-303v207h303v-72h17zm-48.5-89h16.5v57h-273v-177h273v57h-16.5c-17.369 0-31.5 14.131-31.5 31.5s14.131 31.5 31.5 31.5zm80.5-23.5c0 4.687-3.813 8.5-8.5 8.5h-72c-9.098 0-16.5-7.402-16.5-16.5s7.402-16.5 16.5-16.5h68c4.498 0 8.748-1.086 12.5-3.008zm-12.5-39.5h-4.5v-25h4.5c6.893 0 12.5 5.607 12.5 12.5s-5.607 12.5-12.5 12.5z"/><path d="m248 127.5c0 12.958 10.542 23.5 23.5 23.5s23.5-10.542 23.5-23.5-10.542-23.5-23.5-23.5-23.5 10.542-23.5 23.5zm23.5-8.5c4.687 0 8.5 3.813 8.5 8.5s-3.813 8.5-8.5 8.5-8.5-3.813-8.5-8.5 3.813-8.5 8.5-8.5z"/><path d="m87 159.5c0-12.958-10.542-23.5-23.5-23.5s-23.5 10.542-23.5 23.5 10.542 23.5 23.5 23.5 23.5-10.542 23.5-23.5zm-23.5 8.5c-4.687 0-8.5-3.813-8.5-8.5s3.813-8.5 8.5-8.5 8.5 3.813 8.5 8.5-3.813 8.5-8.5 8.5z"/><path d="m185.463 45.306c-5.452 9.034-4.31 20.963 3.478 28.752 4.438 4.438 10.34 6.883 16.617 6.883 4.35 0 8.519-1.176 12.147-3.374 1.167 2.886 2.91 5.537 5.177 7.804 4.438 4.438 10.34 6.883 16.617 6.883 6.276 0 12.178-2.444 16.616-6.883h.001c4.438-4.438 6.883-10.34 6.883-16.617s-2.444-12.179-6.883-16.617c-2.31-2.31-4.986-4.034-7.842-5.179 5.459-9.035 4.319-20.97-3.472-28.762-4.438-4.438-10.34-6.883-16.617-6.883-4.35 0-8.519 1.176-12.146 3.375-1.167-2.886-2.91-5.537-5.178-7.805-4.437-4.438-10.339-6.883-16.616-6.883s-12.179 2.445-16.616 6.883c-4.439 4.438-6.884 10.34-6.884 16.617s2.444 12.179 6.883 16.617c2.276 2.275 4.937 4.023 7.835 5.189zm60.048 29.459c-1.606 1.606-3.74 2.49-6.011 2.49s-4.404-.884-6.011-2.49c-1.605-1.605-2.489-3.74-2.489-6.01 0-2.269.883-4.403 2.488-6.008l.005-.005c1.656-1.655 3.832-2.483 6.007-2.483 2.177 0 4.354.829 6.011 2.486 1.605 1.605 2.489 3.74 2.489 6.01s-.884 4.405-2.489 6.01zm-17.324-48.452c2.271 0 4.404.884 6.01 2.49 3.314 3.314 3.314 8.707 0 12.021l-22.627 22.627c-1.606 1.606-3.741 2.49-6.012 2.49s-4.404-.884-6.01-2.49c-3.314-3.314-3.314-8.707 0-12.021l22.628-22.627c1.606-1.605 3.74-2.49 6.011-2.49zm-39.952-8.823c1.605-1.605 3.739-2.49 6.01-2.49s4.404.884 6.011 2.49c1.605 1.605 2.489 3.74 2.489 6.01s-.884 4.405-2.489 6.01h-.001c-1.605 1.605-3.739 2.49-6.01 2.49s-4.404-.884-6.011-2.49c-1.605-1.605-2.489-3.74-2.489-6.01s.884-4.405 2.49-6.01z"/><path d="m223 223.5v-16c0-8.547-6.953-15.5-15.5-15.5h-56c-.275 0-.5-.224-.5-.5v-48c0-.276.225-.5.5-.5h32c8.547 0 15.5-6.953 15.5-15.5v-32h-15v32c0 .276-.225.5-.5.5h-32c-8.547 0-15.5 6.953-15.5 15.5v48c0 8.547 6.953 15.5 15.5 15.5h56c.275 0 .5.224.5.5v16z"/><path d="m321.629 93.372c4.438 4.438 10.34 6.883 16.616 6.883 6.277 0 12.179-2.445 16.616-6.883 2.268-2.268 4.012-4.919 5.178-7.805 3.628 2.198 7.796 3.375 12.147 3.375 6.277 0 12.179-2.445 16.617-6.883 7.788-7.789 8.93-19.718 3.478-28.752 2.898-1.167 5.56-2.914 7.834-5.189 4.441-4.439 6.885-10.341 6.885-16.618s-2.444-12.179-6.883-16.617c-4.438-4.438-10.34-6.883-16.617-6.883s-12.179 2.445-16.616 6.883c-2.268 2.268-4.012 4.919-5.178 7.805-3.627-2.198-7.796-3.374-12.147-3.374-6.277 0-12.179 2.445-16.617 6.883-7.791 7.792-8.931 19.727-3.472 28.762-2.856 1.145-5.531 2.869-7.841 5.179-4.439 4.439-6.884 10.34-6.884 16.618 0 6.276 2.444 12.177 6.884 16.616-.001 0-.001 0 0 0zm22.626-10.607c-1.605 1.605-3.739 2.49-6.01 2.49s-4.404-.884-6.01-2.49h-.001c-1.605-1.605-2.489-3.74-2.489-6.01 0-2.271.884-4.405 2.49-6.011 1.656-1.657 3.833-2.485 6.01-2.485 2.176 0 4.351.828 6.008 2.484l.005.005c1.604 1.605 2.487 3.738 2.487 6.008 0 2.269-.884 4.404-2.49 6.009zm33.235-57.275c1.605-1.605 3.739-2.49 6.01-2.49s4.404.884 6.011 2.49c1.605 1.605 2.489 3.74 2.489 6.01s-.884 4.405-2.49 6.01c-1.605 1.605-3.739 2.49-6.01 2.49s-4.404-.884-6.01-2.49h-.001c-1.605-1.605-2.489-3.74-2.489-6.01s.884-4.405 2.49-6.01zm-33.941 11.313c1.605-1.605 3.739-2.49 6.01-2.49s4.405.884 6.011 2.49l22.627 22.627c3.314 3.314 3.314 8.707 0 12.021-1.605 1.605-3.739 2.49-6.01 2.49s-4.404-.884-6.01-2.49l-22.628-22.627c-3.315-3.314-3.315-8.707 0-12.021z"/></g></svg>