<?xml version="1.0" encoding="UTF-8"?>
<svg version="1.1" xmlns="http://www.w3.org/2000/svg" width="1380" height="1380">
<path d="M0 0 C1.73600307 0.15386449 3.47190463 0.30887448 5.20776367 0.46435547 C6.1744548 0.55055145 7.14114594 0.63674744 8.13713074 0.72555542 C10.65705728 0.96712432 13.16469578 1.25125217 15.67578125 1.5703125 C24.58907586 2.66399166 33.27122982 3.16468374 42.25 2.75 C43.50550659 2.69223389 43.50550659 2.69223389 44.78637695 2.63330078 C50.34092463 2.30784942 55.83800966 1.67379485 61.35449219 0.96972656 C62.09202728 0.8765213 62.82956238 0.78331604 63.58944702 0.68728638 C65.39309328 0.45920557 67.19656484 0.22974397 69 0 C69.00040018 0.58237613 69.00080037 1.16475226 69.00121268 1.76477616 C69.04488704 65.16889564 69.09226197 128.57301191 69.15898132 191.97711182 C69.15997689 192.9242085 69.16097246 193.87130518 69.16199819 194.84710176 C69.18365669 215.4300299 69.20597938 236.01295727 69.22898628 256.59588395 C69.24026481 266.6897363 69.25139656 276.78358881 69.26245117 286.87744141 C69.26355374 287.88190143 69.2646563 288.88636145 69.26579228 289.92125966 C69.30146124 322.47909622 69.3274383 355.03693175 69.34838969 387.59478083 C69.36997102 421.0520072 69.40132944 454.5092105 69.44499113 487.96641568 C69.45115338 492.69193783 69.45720386 497.41746011 69.46318626 502.14298248 C69.46436715 503.07303368 69.46554803 504.00308488 69.46676469 504.96131944 C69.48548668 519.93298254 69.49390108 534.90463454 69.49846124 549.8763079 C69.50326563 564.9276446 69.51892836 579.97893897 69.54566566 595.03025296 C69.5612213 603.97265957 69.56846056 612.9149827 69.56376929 621.85740208 C69.56145506 627.83349448 69.57000722 633.80950808 69.58732411 639.78557566 C69.59687749 643.189082 69.60011726 646.59226982 69.59339563 649.99580464 C69.58688124 653.66836054 69.5987947 657.34042095 69.61523914 661.01293564 C69.60896245 662.06113596 69.60268575 663.10933627 69.59621885 664.18930024 C69.7106753 678.07277996 73.61060198 690.50523547 83.125 700.8125 C91.60701068 708.80736817 102.6161 713.24847721 114.23785192 713.251849 C114.9365114 713.25477786 115.63517088 713.25770673 116.35500186 713.26072434 C118.69431753 713.26809636 121.03337115 713.26125499 123.37268543 713.25447559 C125.07471993 713.2568657 126.77675338 713.26013106 128.47878471 713.26419219 C133.1720029 713.27283268 137.86514137 713.26897725 142.55836084 713.26313647 C147.65818356 713.25897489 152.75799151 713.26636316 157.85781068 713.27228898 C166.80134391 713.28106545 175.74485426 713.28235796 184.68839073 713.27878571 C197.98769127 713.27348763 211.28696956 713.27956498 224.58626768 713.28786864 C249.02719273 713.30270863 273.46810737 713.30495652 297.90903508 713.30254826 C301.372653 713.30220982 304.83627092 713.30188772 308.29988885 713.30158257 C308.98783872 713.30152153 309.67578859 713.30146049 310.38458542 713.30139759 C325.62724268 713.30012596 340.86989854 713.3027266 356.11255538 713.30610864 C359.59249149 713.30687938 363.0724276 713.30762411 366.55236372 713.30837366 C367.9489928 713.30867535 369.34562187 713.30897723 370.74225095 713.3092793 C371.43453265 713.30942898 372.12681434 713.30957866 372.84007427 713.30973287 C374.24036051 713.3100364 375.64064674 713.31034109 377.04093297 713.31064692 C416.7781118 713.31932108 456.5152894 713.32396304 496.25246906 713.31969929 C496.98840563 713.31962123 497.72434219 713.31954317 498.48257986 713.31946275 C506.68916442 713.31858994 514.89574897 713.31766068 523.10233352 713.31671212 C523.84327552 713.31662661 524.58421751 713.3165411 525.34761229 713.316453 C529.84225924 713.31593421 529.84225924 713.31593421 534.33690619 713.31541077 C581.73136635 713.30987483 629.12580703 713.31741712 676.52026367 713.33618164 C688.46207583 713.3409038 700.403888 713.34558429 712.34570026 713.3500185 C713.44863729 713.35042848 713.44863729 713.35042848 714.57385588 713.35084675 C737.23357204 713.35921717 759.89328657 713.36389763 782.55300426 713.36472607 C783.62002746 713.36476562 783.62002746 713.36476562 784.70860668 713.36480596 C800.32387755 713.36534673 815.93914829 713.36497433 831.55441913 713.36376625 C837.14173558 713.36334062 842.72905205 713.3629755 848.31636851 713.36263681 C849.70636482 713.36255151 851.09636113 713.36246257 852.48635744 713.36236999 C874.6399723 713.36092088 896.79357393 713.36804964 918.94718561 713.37937395 C941.87830351 713.39101981 964.80940119 713.39159146 987.74052087 713.37953053 C1000.96476232 713.37288682 1014.18894155 713.37456774 1027.41317806 713.38811904 C1036.24060349 713.3963373 1045.0679821 713.39370026 1053.89540369 713.38214377 C1058.92893494 713.37586126 1063.96234442 713.37435354 1068.99586884 713.38600711 C1073.57485409 713.39651106 1078.1536139 713.39321393 1082.73258694 713.37890258 C1084.37890621 713.37617367 1086.02524345 713.37846995 1087.67154584 713.38640973 C1102.75662277 713.45419725 1112.71763328 710.37025167 1125.1875 701.8125 C1135.22057969 691.77942031 1139.08957772 679.85382441 1139.14176419 665.96459538 C1139.14074153 664.89902863 1139.13971886 663.83346189 1139.1386652 662.73560524 C1139.14150742 661.59071831 1139.14434964 660.44583138 1139.14727798 659.26625091 C1139.15417444 656.0832844 1139.15661946 652.90035002 1139.1572054 649.71737723 C1139.15893531 646.25656033 1139.16642117 642.79575515 1139.17318195 639.33494508 C1139.18423908 633.2678778 1139.19161078 627.20081467 1139.19658089 621.13373947 C1139.20398791 612.11220194 1139.2170713 603.0906789 1139.23132664 594.06914991 C1139.25514445 578.89395985 1139.27434558 563.71876721 1139.29092598 548.54356766 C1139.30736043 533.51572949 1139.32584042 518.48789614 1139.34705925 503.46006393 C1139.34903566 502.059086 1139.34903566 502.059086 1139.351052 500.62980547 C1139.35775398 495.88666891 1139.36449257 491.1435324 1139.37124526 486.40039591 C1139.41902289 452.79476731 1139.46220373 419.18913421 1139.50268555 385.58349609 C1139.54202639 352.93375319 1139.58344672 320.284014 1139.62768555 287.63427734 C1139.62904808 286.62807282 1139.63041061 285.62186829 1139.63181442 284.58517271 C1139.64549966 274.48055883 1139.65922721 264.37594501 1139.67298577 254.27133123 C1139.70101317 233.68661495 1139.72875816 213.10189829 1139.7563324 192.5171814 C1139.7582347 191.0974677 1139.7582347 191.0974677 1139.76017542 189.64907293 C1139.84484771 126.43272134 1139.92293618 63.21636127 1140 0 C1141.09255096 0.13875549 1142.18510193 0.27751099 1143.3107605 0.42047119 C1144.7616921 0.60360631 1146.21263036 0.78668864 1147.66357422 0.96972656 C1148.38159714 1.06105865 1149.09962006 1.15239075 1149.83940125 1.24649048 C1165.49361556 3.21676325 1180.55377722 3.07996197 1196.22277832 1.30111694 C1199.08690732 0.99057718 1201.95240125 0.72166586 1204.82177734 0.46435547 C1205.79625824 0.37668915 1206.77073914 0.28902283 1207.77474976 0.19869995 C1208.50908234 0.13312897 1209.24341492 0.06755798 1210 0 C1210.03428986 64.46558885 1210.06608734 128.93117878 1210.08468628 193.39677429 C1210.08496239 194.351363 1210.08523851 195.30595171 1210.08552299 196.28946734 C1210.09150924 217.0368182 1210.09704954 237.78416916 1210.10213066 258.53152027 C1210.10462526 268.70647903 1210.10721838 278.88143776 1210.10986328 289.05639648 C1210.11025556 290.57516713 1210.11025556 290.57516713 1210.11065576 292.12462002 C1210.11917367 324.9245465 1210.13419273 357.72446607 1210.15259444 390.52438837 C1210.17147513 424.23940091 1210.18377449 457.95440962 1210.18782998 491.66942735 C1210.18840626 496.43486816 1210.18905754 501.20030895 1210.18975449 505.96574974 C1210.18988933 506.90362788 1210.19002418 507.84150602 1210.19016311 508.80780471 C1210.19252365 523.88595126 1210.20179197 538.96408599 1210.21366407 554.04222773 C1210.22546047 569.21240826 1210.22993047 584.38257711 1210.22700275 599.55276207 C1210.22548525 608.55812187 1210.2295044 617.56343877 1210.24159509 626.5687908 C1210.24913173 632.59575926 1210.24930156 638.62269984 1210.24366363 644.64967027 C1210.24066354 648.07645941 1210.24182013 651.5031027 1210.24976636 654.92989341 C1210.32266125 688.32037531 1207.23443567 717.04596634 1186 744 C1185.04867188 745.22783203 1185.04867188 745.22783203 1184.078125 746.48046875 C1168.15152642 765.7080931 1143.44477582 777.68395814 1119 781 C1113.0574553 781.49669603 1107.09252218 781.40625399 1101.13428783 781.38031673 C1099.36736426 781.3837566 1097.60044284 781.38850766 1095.83352587 781.3944377 C1090.99735412 781.40689263 1086.16135984 781.40082209 1081.32518747 781.39160402 C1076.05640501 781.38487556 1070.78765241 781.39556969 1065.51887637 781.40399987 C1056.29085828 781.4163596 1047.06289105 781.41758218 1037.83486748 781.41144943 C1024.11224718 781.40235407 1010.38967386 781.41039388 996.66705716 781.42174067 C971.44492475 781.44197842 946.22282108 781.44346897 921.00068364 781.43809005 C917.42939678 781.4373343 913.85810991 781.43660668 910.28682303 781.43590808 C909.57743667 781.43576899 908.8680503 781.4356299 908.13716738 781.43548659 C892.40292831 781.43253193 876.66869206 781.43554943 860.9344535 781.43980437 C858.77983861 781.44038652 856.62522372 781.44095537 854.47060882 781.44152 C848.69453208 781.44303501 842.91845534 781.44456192 837.14237861 781.44611301 C796.83019471 781.45686674 756.51801343 781.46157466 716.20582867 781.45364285 C715.06646441 781.45342039 715.06646441 781.45342039 713.90408269 781.45319343 C705.43435913 781.45153449 696.96463559 781.44978491 688.49491205 781.44800042 C687.73024778 781.4478394 686.96558351 781.44767837 686.1777476 781.44751247 C679.9730253 781.44620493 679.9730253 781.44620493 676.90068265 781.44555128 C627.99049684 781.43516008 579.08034701 781.44292694 530.17016602 781.46655273 C517.84544474 781.47249633 505.52072345 781.47838797 493.19600201 781.48396206 C492.43708027 781.48430583 491.67815854 781.4846496 490.89623917 781.48500379 C467.49963955 781.49553416 444.10304293 781.50112526 420.70644093 781.5015192 C419.97171562 781.50153199 419.23699031 781.50154477 418.48000061 781.50155794 C402.34985022 781.50178625 386.21970009 781.50077996 370.08954985 781.49864888 C364.3177372 781.49789415 358.54592454 781.49721593 352.77411188 781.49656873 C351.33828581 781.49640604 349.90245975 781.49623838 348.46663368 781.49606572 C325.606732 781.49334672 302.74685219 781.50188942 279.88695521 781.51591982 C256.2184902 781.53033997 232.5500777 781.52985879 208.88161167 781.5125451 C195.24130033 781.5029779 181.60109557 781.50442566 167.96079134 781.52177979 C158.84609541 781.53226584 149.7314807 781.52817364 140.61679277 781.51229975 C135.42586546 781.50366506 130.23514704 781.5012506 125.04423042 781.51656907 C120.31313124 781.53039858 115.5824188 781.52551153 110.85134184 781.50628388 C109.15896915 781.50257702 107.46656461 781.50542367 105.7742209 781.51599697 C78.40217319 781.67509657 52.35429494 772.87709651 32.57421875 753.546875 C31.29998047 752.28617188 31.29998047 752.28617188 30 751 C29.34644531 750.40703125 28.69289063 749.8140625 28.01953125 749.203125 C11.90953394 734.30967211 1.20520467 709.78889133 -0.18472137 688.12023214 C-0.25217259 685.03013555 -0.261136 681.94567039 -0.24609566 678.8548708 C-0.24840335 677.67551229 -0.25071103 676.49615379 -0.25308865 675.28105715 C-0.25745217 672.02467498 -0.25291421 668.76844939 -0.24453239 665.51207975 C-0.23762734 661.96304204 -0.24241252 658.41401637 -0.24568737 654.86497611 C-0.24982478 648.65074648 -0.24656451 642.43655525 -0.23841095 636.22233009 C-0.22632074 626.98206971 -0.22574121 617.74183343 -0.22749493 608.50156658 C-0.23012044 592.95656595 -0.22344858 577.41158236 -0.21146011 561.86658669 C-0.19962214 546.47725147 -0.19192743 531.08792334 -0.18975449 515.6985836 C-0.18961701 514.74137411 -0.18947953 513.78416463 -0.18933788 512.79794879 C-0.18866121 507.9366763 -0.18805844 503.07540381 -0.18748413 498.21413132 C-0.18328439 463.79045447 -0.1698127 429.36678687 -0.15087891 394.94311523 C-0.13250734 361.50301157 -0.11834143 328.06291044 -0.10986328 294.62280273 C-0.10960023 293.59185689 -0.10933718 292.56091104 -0.10906615 291.49872441 C-0.10642909 281.1454509 -0.10387747 270.79217737 -0.10138843 260.43890382 C-0.09631614 239.34848518 -0.09067364 218.25806671 -0.08468628 197.16764832 C-0.0844117 196.19796566 -0.08413712 195.228283 -0.08385422 194.22921602 C-0.06545591 129.48614016 -0.03376586 64.74306944 0 0 Z " fill="#FFFFFF" transform="translate(85,571)"/>
<path d="M0 0 C4.10486117 0.00766965 8.20968874 -0.00219302 12.31454504 -0.00973 C19.4958639 -0.02052596 26.67711502 -0.02026054 33.85843694 -0.01258852 C44.53755799 -0.00121086 55.21662219 -0.00705794 65.89574289 -0.01621344 C84.97193723 -0.03198991 104.04810138 -0.03064976 123.12429857 -0.0219767 C139.8183961 -0.01442412 156.51248258 -0.01246269 173.20658147 -0.01604463 C174.3147959 -0.01627379 175.42301032 -0.01650294 176.564807 -0.01673904 C181.06363531 -0.01767309 185.56246361 -0.01862829 190.0612919 -0.01961833 C232.24662381 -0.02879124 274.43193652 -0.02048144 316.61726546 -0.00432764 C354.08007184 0.00990871 391.54284763 0.00863481 429.00565374 -0.00571062 C471.11481226 -0.02178143 513.22395382 -0.02814065 555.33311498 -0.01887383 C559.82365199 -0.0179117 564.31418899 -0.01697318 568.804726 -0.01604463 C569.91037599 -0.0158074 571.01602598 -0.01557017 572.15518051 -0.01532575 C588.83703237 -0.01191619 605.51887195 -0.01589883 622.2007221 -0.02348329 C641.17250354 -0.03206598 660.14425013 -0.02990608 679.11602724 -0.01364106 C689.72825411 -0.00484254 700.34040548 -0.00424223 710.95263037 -0.01557958 C718.0475444 -0.02232211 725.14239806 -0.01809233 732.23730317 -0.00506528 C736.27539007 0.00204821 740.3133273 0.00455911 744.35140932 -0.00628323 C775.63618921 -0.08397189 801.76483444 3.14859419 827.00565374 23.38540266 C827.66307561 23.88813704 828.32049749 24.39087141 828.99784124 24.90884016 C846.82003904 39.11732044 858.30253798 63.00347776 861.00565374 85.38540266 C861.68830764 95.90652331 861.5550782 106.4677781 861.51002419 117.00588392 C861.49598576 121.11475805 861.50265452 125.22361086 861.50615728 129.33250044 C861.50884387 136.22382358 861.4955155 143.11497098 861.47220647 150.00625227 C861.44557479 157.9339448 861.44386559 165.8613445 861.45559484 173.78906648 C861.46643134 181.4713606 861.46014179 189.15355049 861.44603956 196.83583639 C861.4403336 200.08066252 861.44031926 203.32541101 861.44510496 206.5702381 C861.44993223 210.39956734 861.43953966 214.22858216 861.41815031 218.05785177 C861.4126607 219.44964283 861.41204343 220.8414646 861.41710317 222.23325728 C861.50631286 250.32760642 851.03942818 273.63929336 831.81815374 293.94790266 C816.18270134 309.12821347 793.16203704 320.50177406 771.07000434 320.51305316 C769.89617297 320.51606913 768.72234159 320.5190851 767.51293957 320.52219246 C765.58849275 320.51953825 765.58849275 320.51953825 763.6251682 320.51683043 C762.23760385 320.51848086 760.85003996 320.5205675 759.46247685 320.52305053 C755.6377245 320.52861666 751.81299455 320.52794486 747.98823944 320.52627294 C743.83150951 320.52554213 739.6747859 320.53056412 735.51805866 320.53484796 C727.2683413 320.54243092 719.01863041 320.54462117 710.76890993 320.54517701 C700.8894775 320.54609036 691.01005106 320.55275706 681.1306212 320.55952384 C657.25102374 320.5755893 633.37142692 320.58148775 609.49182503 320.58627259 C598.19644553 320.58860799 586.90106655 320.59221059 575.60568746 320.59596796 C536.94488428 320.60880397 498.28408138 320.6195231 459.62327611 320.62297056 C457.19603597 320.6231922 454.76879583 320.62341398 452.34155568 320.62363592 C449.90843171 320.62385656 447.47530773 320.62407704 445.04218376 320.62429736 C440.16086646 320.62473992 435.27954916 320.62518703 430.39823186 320.62563704 C429.18794754 320.62574643 427.97766322 320.62585582 426.73070361 320.62596853 C387.48518105 320.62959934 348.23967696 320.64552006 308.99416146 320.6688274 C267.50731671 320.69342081 226.02048251 320.70714318 184.53363025 320.70833848 C179.97978468 320.70850994 175.42593912 320.70872537 170.87209356 320.70897291 C169.75079829 320.70902868 168.62950303 320.70908445 167.47422912 320.70914191 C149.42553493 320.71029279 131.37685969 320.72131793 113.3281719 320.73585997 C95.18801567 320.75022301 77.04788373 320.75346304 58.90772337 320.74541999 C48.13050619 320.74096283 37.35336742 320.74482785 26.57616054 320.7606585 C19.37471494 320.77040814 12.17332429 320.76923037 4.9718792 320.75922227 C0.87028627 320.75383016 -3.23115609 320.75312037 -7.33273655 320.76573099 C-11.07079881 320.77712779 -14.80858895 320.77448267 -18.54664209 320.76106392 C-20.51048452 320.75751416 -22.47433723 320.76855714 -24.43814743 320.7803552 C-50.31477434 320.6286729 -73.58026605 309.96092598 -91.6208111 291.77846907 C-92.07407771 291.31875715 -92.52734431 290.85904524 -92.99434626 290.38540266 C-94.11776423 289.27745344 -94.11776423 289.27745344 -95.26387751 288.14712141 C-112.38265274 270.21798996 -119.48577434 245.49230165 -119.398399 221.2203636 C-119.40411958 219.75983284 -119.41109027 218.29930653 -119.41919672 216.83878706 C-119.43696092 212.91491306 -119.43599127 208.99126471 -119.43025434 205.06736277 C-119.42713679 201.77031044 -119.43328342 198.47329988 -119.43929309 195.17625354 C-119.45328295 187.38541939 -119.45182457 179.59469501 -119.44039118 171.80385969 C-119.42892641 163.81605926 -119.44297065 155.82859525 -119.46978766 147.84083913 C-119.49207747 140.93839806 -119.49855207 134.03606154 -119.49271125 127.13358711 C-119.48937065 123.03071415 -119.49155992 118.92805642 -119.50896227 114.82521437 C-119.6358569 81.7068452 -114.94679134 54.10460495 -91.5714947 28.97426985 C-81.51750202 18.84557258 -69.15432435 11.05192574 -55.80684626 6.13540266 C-55.1851153 5.90103499 -54.56338435 5.66666731 -53.92281306 5.42519758 C-36.41946761 -0.61589514 -18.2492904 -0.04899975 0 0 Z M-57.24825251 67.15493391 C-65.96889644 78.29472739 -68.44724509 89.39989202 -68.398399 103.25185774 C-68.40411176 104.63271761 -68.41107951 106.01357277 -68.41919672 107.39442061 C-68.43704638 111.12191611 -68.43597496 114.84917514 -68.43025434 118.57670043 C-68.4271496 121.70009551 -68.43326938 124.82344601 -68.43929309 127.94683473 C-68.45331072 135.3226358 -68.45180099 142.698321 -68.44039118 150.07412337 C-68.42892126 157.65579895 -68.44297282 165.23712032 -68.46978766 172.81874923 C-68.49202161 179.35242267 -68.49856454 185.88598556 -68.49271125 192.41969411 C-68.48935774 196.31118516 -68.49164834 200.20244944 -68.50896227 204.09390829 C-68.52455208 207.75736735 -68.52034462 211.42030653 -68.50165713 215.08374594 C-68.49627777 217.04944951 -68.51039458 219.01517711 -68.52535212 220.98083113 C-68.42549889 233.14804719 -65.30603181 242.68335838 -57.99434626 252.38540266 C-57.41684626 253.25165266 -56.83934626 254.11790266 -56.24434626 255.01040266 C-49.30055022 262.33996516 -38.72484145 269.01033426 -28.38579359 269.5119645 C-27.38561128 269.51270348 -26.38542896 269.51344246 -25.35493809 269.51420383 C-23.6169809 269.51911212 -23.6169809 269.51911212 -21.84391347 269.52411957 C-20.56767211 269.52263595 -19.29143075 269.52115232 -17.97651541 269.51962374 C-16.60401751 269.52157651 -15.23152018 269.5239653 -13.85902372 269.52675171 C-10.06680153 269.53316419 -6.2746005 269.53331234 -2.48237393 269.5324743 C1.6355735 269.53264355 5.75351329 269.53854692 9.87145692 269.54371516 C18.04823723 269.55305193 26.22501213 269.55696502 34.40179711 269.55923413 C44.19217895 269.56219339 53.98255358 269.57088916 63.77293164 269.57964841 C87.43869157 269.60050488 111.10445275 269.61096439 134.77021972 269.61977802 C145.96248532 269.6239827 157.15475038 269.62920492 168.34701552 269.63446255 C206.64800701 269.65235353 244.94899864 269.66735035 283.24999368 269.67478274 C285.65509649 269.6752575 288.0601993 269.67573338 290.46530211 269.6762104 C292.2544007 269.67656496 292.2544007 269.67656496 294.07964271 269.67692669 C300.12276943 269.67812791 306.16589616 269.67934335 312.20902288 269.68056868 C313.40830651 269.68080883 314.60759014 269.68104898 315.8432157 269.68129641 C354.73506531 269.68919098 393.62688444 269.71262568 432.51872074 269.74512462 C473.62277015 269.77940953 514.72680173 269.79913262 555.83086568 269.80242698 C560.34171868 269.80284453 564.85257167 269.80332409 569.36342466 269.80385016 C570.47414999 269.80397335 571.58487532 269.80409654 572.729259 269.80422347 C590.61687216 269.80655714 608.50444997 269.82222639 626.39205052 269.842692 C644.3666126 269.8629311 662.34113215 269.86843638 680.31570352 269.85892137 C690.99802887 269.85369899 701.68021276 269.85961868 712.36251779 269.88145604 C719.49695043 269.89494006 726.63128543 269.89390837 733.76571899 269.88105408 C737.83156914 269.8741415 741.89714839 269.87354217 745.96297462 269.89061417 C749.66515131 269.9060326 753.36683968 269.90288198 757.06900204 269.88520389 C759.02090601 269.88059062 760.97282669 269.89552678 762.92467186 269.91136367 C774.79822367 269.81802989 783.53104591 266.39507187 793.00565374 259.38540266 C793.87190374 258.80790266 794.73815374 258.23040266 795.63065374 257.63540266 C803.31714342 250.35346507 809.60024589 239.47758139 810.13987482 228.70627115 C810.1441483 227.6770885 810.14842178 226.64790585 810.15282476 225.58753584 C810.16355772 223.81091818 810.16355772 223.81091818 810.1745075 221.99840925 C810.1771964 220.70226698 810.17988531 219.40612471 810.18265569 218.0707054 C810.18892382 216.68896437 810.19557093 215.30722502 810.20256841 213.9254875 C810.22357669 209.39000233 810.2339705 204.85451697 810.24393499 200.31899641 C810.24798431 198.75412159 810.25210128 197.18924694 810.25628507 195.62437247 C810.27533279 188.26833083 810.28956246 180.91229917 810.29789704 173.55623762 C810.30765622 165.08402365 810.33394278 156.61207186 810.37439793 148.1399502 C810.40463908 141.58008944 810.41937363 135.02030347 810.42267805 128.4603744 C810.4250202 124.54812889 810.43387037 120.63616358 810.45913923 116.72399328 C810.48256442 113.03766625 810.48659594 109.35180102 810.47637784 105.66541861 C810.475653 103.68393725 810.49464392 101.70247859 810.5144428 99.72109602 C810.43788798 86.44546806 805.91697038 74.56969383 796.88065374 64.69790266 C784.88515633 53.54604463 770.98828022 50.918215 755.13117254 51.00787924 C753.76329386 51.00474305 752.39541769 51.00029428 751.027547 50.99466614 C747.28537432 50.98304249 743.54343552 50.9899427 739.80126688 51 C735.7237228 51.00763608 731.64621354 50.9978201 727.56867445 50.99027 C720.42771435 50.97944987 713.28682233 50.97975444 706.14585912 50.98741148 C695.52693821 50.99876685 684.90807465 50.99295359 674.28915411 50.98378656 C655.32292578 50.96799286 636.35672777 50.96935711 617.39049655 50.9780233 C600.79283167 50.98556999 584.1951779 50.98754006 567.59751165 50.98395537 C566.49654598 50.98372621 565.39558032 50.98349706 564.26125206 50.98326096 C559.79207266 50.98232694 555.32289327 50.98137174 550.85371388 50.98038167 C508.92945824 50.97120468 467.00522191 50.97952503 425.08096924 50.99567236 C387.83384852 51.00990917 350.58675857 51.00863528 313.33963811 50.99428938 C271.49205526 50.97822546 229.64448947 50.97185551 187.79690397 50.98112617 C183.33586793 50.98208832 178.87483188 50.98302685 174.41379583 50.98395537 C172.76616478 50.98431121 172.76616478 50.98431121 171.08524825 50.98467425 C154.49802277 50.98808666 137.91080963 50.98409586 121.32358587 50.97651671 C102.46316346 50.96794184 83.60277612 50.97007724 64.74235809 50.98635894 C54.18687174 50.99517062 43.63146133 50.99573875 33.07597695 50.98442042 C26.02508912 50.97769375 18.97426218 50.9818791 11.92338338 50.99493472 C7.90625278 51.00207017 3.88927305 51.00451304 -0.1278528 50.99371677 C-3.7868701 50.98398331 -7.44560355 50.98820372 -11.1046004 51.00325876 C-13.03100938 51.00767552 -14.95743526 50.99748867 -16.88381851 50.98659591 C-32.50681664 51.08732396 -46.37057575 55.46312749 -57.24825251 67.15493391 Z " fill="#FFFFFF" transform="translate(318.9943462610245,928.6145973373204)"/>
<path d="M0 0 C1.6528087 1.53418606 3.29850778 3.0760623 4.9375 4.625 C5.81019531 5.42164063 6.68289063 6.21828125 7.58203125 7.0390625 C30.33328649 28.58603099 45.54746111 61.47671244 47.09863281 92.88793945 C47.58445664 131.64933672 39.52811007 165.37718697 13.9375 195.625 C13.26074219 196.43710937 12.58398438 197.24921875 11.88671875 198.0859375 C-10.32411856 223.82939427 -44.19926223 240.7679211 -78.0625 243.625 C-120.93074872 245.51667673 -157.45456846 233.82668524 -189.35546875 204.6484375 C-215.73107758 179.75328501 -229.61168371 144.77913769 -231.23046875 108.90234375 C-231.45448599 70.59539627 -217.93432805 34.38798261 -191.18359375 6.71875 C-139.7993107 -44.90692492 -54.69823418 -48.24797071 0 0 Z " fill="#FFFFFF" transform="translate(482.0625,657.375)"/>
<path d="M0 0 C18.73045533 -0.89318559 37.4565287 -1.56027372 56.20395565 -1.96886253 C64.91290873 -2.16377203 73.60841448 -2.42955001 82.30883789 -2.86669922 C140.10361062 -5.71225494 140.10361062 -5.71225494 152.44393921 3.47476196 C161.2061454 11.55283113 165.90343641 22.34122503 170.08432007 33.2890625 C172.60690727 39.79109883 176.38015443 45.14998543 180.43359375 50.80859375 C181.63637831 52.61636641 182.83134621 54.42936973 184.01757812 56.24804688 C184.58162354 57.10390381 185.14566895 57.95976074 185.72680664 58.84155273 C187.49599884 61.52627097 189.26459222 64.21138317 191.03320312 66.89648438 C196.00095534 74.43607487 200.97215565 81.97295088 205.98828125 89.48046875 C211.66439506 97.97607202 217.27474879 106.51486213 222.89099121 115.05010986 C232.46832989 129.60352657 242.06956834 144.13993353 251.75 158.625 C258.56874549 168.83003199 265.33766135 179.06455902 272.0402832 189.34643555 C279.13998734 200.23165455 286.28619981 211.08612347 293.4375 221.9375 C294.38923599 223.38171326 294.38923599 223.38171326 295.36019897 224.85510254 C303.34626422 236.97076712 311.35932201 249.06726766 319.42602539 261.12939453 C326.80786706 272.18086744 334.09763477 283.29271735 341.38818359 294.40454102 C341.86433105 295.13022278 342.34047852 295.85590454 342.83105469 296.60357666 C343.72080594 297.95988848 344.6103103 299.31636231 345.49951172 300.67303467 C345.90234375 301.28729309 346.30517578 301.90155151 346.72021484 302.53442383 C347.10070984 303.1164859 347.48120483 303.69854797 347.87322998 304.29824829 C348.63251186 305.44498562 349.40370859 306.58391153 350.18585205 307.71517944 C353 311.79849377 353 311.79849377 353 314 C279.74 314 206.48 314 131 314 C126.05 302.12 121.1 290.24 116 278 C111.92522553 268.31107803 111.92522553 268.31107803 107.83590698 258.62835693 C106.67623436 255.88820139 105.51782284 253.14751501 104.35961914 250.40673828 C102.31353273 245.56528149 100.26656167 240.72419938 98.21929932 235.88323975 C94.62382951 227.38114243 91.02976275 218.87845285 87.4375 210.375 C86.84781433 208.97920212 86.84781433 208.97920212 86.24621582 207.5552063 C80.09528138 192.99285482 73.98128721 178.41531528 67.88397217 163.83044434 C62.13649817 150.08412229 56.36094409 136.3498992 50.5625 122.625 C50.16918488 121.69399475 49.77586975 120.7629895 49.37063599 119.80377197 C46.58138978 113.20210631 43.79084505 106.60098988 41 100 C37.81160435 92.45871161 34.62392055 84.91712316 31.4375 77.375 C31.04908936 76.45579773 30.66067871 75.53659546 30.26049805 74.58953857 C25.80502149 64.04338011 21.3632152 53.49164637 16.9453125 42.9296875 C16.53295853 41.94386688 16.12060455 40.95804626 15.695755 39.94235229 C13.72351922 35.22589109 11.75305656 30.50869725 9.78491211 25.79052734 C9.42561615 24.93024933 9.06632019 24.06997131 8.69613647 23.18362427 C8.03408142 21.59843273 7.37280959 20.01291371 6.71255493 18.42697144 C4.81674678 13.88999738 2.83247422 9.40888139 0.74632263 4.95574951 C0 3 0 3 0 0 Z " fill="#FFFFFF" transform="translate(1017,33)"/>
<path d="M0 0 C48.51 0 97.02 0 147 0 C146.34584161 7.19574229 145.60649314 14.25461767 144.52891541 21.38119507 C144.38261407 22.36591974 144.23631273 23.35064441 144.08557802 24.36520922 C143.59900454 27.63503688 143.10798082 30.90417982 142.61694336 34.17333984 C142.26498048 36.53224761 141.91329313 38.89119649 141.56185913 41.25018311 C140.70674633 46.98523059 139.84874912 52.71984111 138.989452 58.45426302 C137.98079613 65.1864455 136.97567864 71.91915489 135.97072489 78.65189083 C134.16827647 90.72679622 132.36296873 102.80127232 130.5559082 114.87548828 C128.82118738 126.46638825 127.08794675 138.05750797 125.35668945 149.64892578 C125.25095657 150.35684436 125.14522368 151.06476293 125.03628676 151.79413359 C124.61065531 154.64391875 124.18503131 157.49370502 123.75941795 160.34349289 C114.92134796 219.51992112 114.92134796 219.51992112 110.61068231 248.2508384 C109.49643872 255.67997326 108.38684077 263.10978828 107.27991599 270.54001701 C106.53647542 275.52622277 105.79025646 280.51201015 105.04342186 285.49770856 C104.69034559 287.85893228 104.33846122 290.22033457 103.98782146 292.58192134 C103.50729328 295.81726626 103.02260057 299.05196064 102.53688049 302.28652954 C102.39514928 303.24785679 102.25341806 304.20918404 102.10739195 305.19964242 C101.9754671 306.07248305 101.84354224 306.94532368 101.70761967 307.84461403 C101.53776604 308.9831503 101.53776604 308.9831503 101.36448103 310.14468729 C101 312 101 312 100 314 C27.07 314 -45.86 314 -121 314 C-120.0846185 309.42309248 -118.73335354 305.34036522 -117.0703125 301.01171875 C-116.76854095 300.21780228 -116.46676941 299.4238858 -116.15585327 298.60591125 C-115.14998732 295.96473095 -114.13775802 293.32604456 -113.125 290.6875 C-112.40820233 288.81184926 -111.69140547 286.93619821 -110.97460938 285.06054688 C-105.1970952 269.97745804 -99.25747765 254.9601012 -93.28768921 239.95230103 C-87.72647599 225.96746283 -82.26681078 211.94982931 -76.9375 197.875 C-71.44113332 183.36101457 -65.85713885 168.88471926 -60.1875 154.4375 C-59.81489044 153.48797455 -59.44228088 152.5384491 -59.05838013 151.56015015 C-58.68470306 150.60790558 -58.311026 149.65566101 -57.92602539 148.67456055 C-52.37439489 134.52552187 -46.86357779 120.36111184 -41.375 106.1875 C-32.95325504 84.44388776 -24.48413514 62.71938595 -16 41 C-10.72 27.47 -5.44 13.94 0 0 Z " fill="#FFFFFF" transform="translate(415,33)"/>
<path d="M0 0 C48.51 0 97.02 0 147 0 C154.26 18.81 161.52 37.62 169 57 C175.0009919 72.3925254 175.0009919 72.3925254 181.01171875 87.78125 C185.53157516 99.34494747 190.01507125 110.92272222 194.5 122.5 C200.31412875 137.5075461 206.14261566 152.50928269 212 167.5 C219.80892654 187.4871655 227.56756171 207.49370275 235.31971741 227.50294495 C238.65734392 236.11732036 241.99852639 244.73031346 245.34042358 253.34303284 C248.525199 261.55127889 251.70738491 269.7605258 254.8878479 277.97044373 C256.79795842 282.90058219 258.71055444 287.82973607 260.62727356 292.75730896 C261.3763276 294.6841805 262.12395965 296.61159536 262.87084961 298.53930664 C263.71545296 300.71917575 264.56241263 302.89813421 265.41235352 305.07592773 C265.76483154 305.98802002 266.11730957 306.9001123 266.48046875 307.83984375 C266.77848389 308.60675537 267.07649902 309.37366699 267.38354492 310.16381836 C268 312 268 312 268 314 C195.07 314 122.14 314 47 314 C44.75000218 306.12500763 44.75000218 306.12500763 44.25364017 302.78181648 C44.13800632 302.01868397 44.02237246 301.25555146 43.90323454 300.46929371 C43.7842713 299.65234213 43.66530806 298.83539055 43.54273987 297.99368286 C43.40995146 297.10815825 43.27716306 296.22263365 43.14035076 295.31027496 C42.69792843 292.35218769 42.26218591 289.39315604 41.82641602 286.43408203 C41.50940141 284.3051563 41.19197214 282.17629228 40.87416077 280.04748535 C40.00989745 274.25040828 39.15140729 268.45248903 38.29387021 262.6544137 C37.38425963 256.51143513 36.4691796 250.3692714 35.55467224 244.22702026 C34.00915187 233.84172715 32.4668052 223.45596634 30.92700195 213.06982422 C28.22827577 194.86674898 25.52268301 176.66469601 22.81645775 158.46273422 C22.43894604 155.92354109 22.06143659 153.38434762 21.68392944 150.84515381 C21.49806507 149.59504194 21.31220069 148.34493007 21.12070405 147.05693603 C20.00416883 139.54630646 18.88876826 132.0355094 17.7742728 124.5245769 C14.36152342 101.52593291 10.94079068 78.52874438 7.44873047 55.54199219 C7.17991416 53.77044755 6.91112339 51.99889904 6.64235973 50.22734642 C5.55051727 43.03357391 4.45685445 35.8401138 3.35137892 28.64842224 C3.02684589 26.533305 2.70421746 24.4179078 2.38242531 22.30237198 C2.00149374 19.79931861 1.61726522 17.29676349 1.2288723 14.79485703 C1.06459551 13.71012226 0.90031872 12.6253875 0.73106384 11.50778198 C0.58862212 10.58055769 0.4461804 9.6533334 0.29942226 8.6980114 C-0.02056897 5.81465867 0 2.90105452 0 0 Z " fill="#FFFFFF" transform="translate(815,33)"/>
<path d="M0 0 C48.51 0 97.02 0 147 0 C150.44606565 22.97377101 150.44606565 22.97377101 151.6894989 33.52177429 C151.83498651 34.73463806 151.98047412 35.94750184 152.13037044 37.19711906 C152.52481312 40.49040932 152.91662112 43.78399927 153.3072015 47.07774937 C153.73234285 50.65712865 154.16103944 54.23608251 154.58926392 57.81509399 C155.42351471 64.79213788 156.25461004 71.76955403 157.08461507 78.74710413 C158.0520666 86.87893158 159.02287493 95.01035726 159.99383793 103.14176605 C161.724943 117.63987847 163.4532838 132.13831902 165.17993164 146.63696289 C166.85528829 160.70487752 168.5322629 174.77259792 170.21118164 188.84008789 C170.31493832 189.70945772 170.41869499 190.57882755 170.52559581 191.47454192 C170.94266371 194.96908995 171.35973626 198.46363743 171.77681653 201.95818399 C173.57208333 217.00033389 175.36604474 232.04263952 177.15982154 247.08496717 C177.45028405 249.52065189 177.74077676 251.95633302 178.03127646 254.39201331 C179.04631144 262.90277065 180.06095289 271.41357462 181.07448228 279.9245114 C181.49344846 283.44269625 181.91259245 286.96085965 182.33223534 290.47896385 C182.78595666 294.28287035 183.23875975 298.08688581 183.69145203 301.89091492 C183.82558886 303.01440753 183.95972569 304.13790015 184.09792727 305.29543799 C184.2780304 306.81087595 184.2780304 306.81087595 184.46177197 308.35692883 C184.56646744 309.23577211 184.67116291 310.11461539 184.77903098 311.02009028 C185 313 185 313 185 314 C111.74 314 38.48 314 -37 314 C-36.33003722 305.29048385 -35.56130179 296.67088002 -34.51304626 288.00956726 C-34.2912528 286.14918209 -34.2912528 286.14918209 -34.06497866 284.25121337 C-33.65875543 280.84846846 -33.25010946 277.4460312 -32.84038675 274.04370701 C-32.39736615 270.35975012 -31.9575449 266.67541105 -31.51731873 262.99111938 C-30.75573892 256.62104332 -29.99216964 250.25120833 -29.22721672 243.88153648 C-28.1212502 234.67226035 -27.01833432 225.46262086 -25.91614301 216.25289223 C-24.12747137 201.30774204 -22.33636109 186.36288518 -20.54370117 171.41821289 C-18.80315539 156.90795035 -17.06377438 142.39754896 -15.32592773 127.88696289 C-15.16338457 126.52978622 -15.16338457 126.52978622 -14.9975577 125.14519185 C-14.15000007 118.06831552 -13.3025096 110.99143114 -12.45504034 103.91454422 C-8.30698954 69.27592722 -4.15308531 34.63801446 0 0 Z " fill="#FFFFFF" transform="translate(617,33)"/>
<path d="M0 0 C1.44899398 0.0019754 2.89799496 0.00086445 4.34698486 -0.00309753 C8.27486508 -0.00510468 12.20124661 0.03602474 16.1287787 0.08492017 C20.23532638 0.12870322 24.3419091 0.1327931 28.44865417 0.14109802 C36.2226236 0.16284813 43.9959033 0.2202815 51.7695691 0.29054445 C60.62068868 0.36880804 69.47184135 0.40727936 78.32322085 0.4424125 C96.52861564 0.51556516 114.73336856 0.63867585 132.93823242 0.79467773 C132.65639319 1.47075231 132.37455397 2.14682688 132.08417416 2.84338856 C130.78597078 5.95771443 129.48795502 9.07211847 128.18994141 12.18652344 C127.52512882 13.78125866 127.52512882 13.78125866 126.84688568 15.40821075 C124.19273931 21.77689632 121.5459252 28.14853089 118.91088867 34.52514648 C110.72159687 54.33592986 102.44929231 74.10956962 94.09667969 93.85205078 C88.68120019 106.65409236 83.29817638 119.46929161 77.93823242 132.29467773 C71.4072217 147.92053087 64.83548217 163.5287409 58.24047852 179.12768555 C52.44460704 192.8381967 46.67879966 206.56092357 40.93823242 220.29467773 C32.35243532 240.83393299 23.70025549 261.34485599 15.02954102 281.84838867 C13.40983716 285.67866553 11.79148492 289.50951035 10.17411804 293.34077454 C8.8876463 296.38811601 7.6003856 299.43512403 6.31323242 302.48217773 C5.86987549 303.53284424 5.42651855 304.58351074 4.96972656 305.66601562 C4.57519287 306.59921631 4.18065918 307.53241699 3.77416992 308.49389648 C3.43949707 309.28626709 3.10482422 310.0786377 2.76000977 310.89501953 C2.1903698 312.21182541 1.57986587 313.51141083 0.93823242 314.79467773 C-71.99176758 314.79467773 -144.92176758 314.79467773 -220.06176758 314.79467773 C-218.61971574 311.18954815 -217.51420533 308.72845818 -215.4230957 305.62548828 C-214.89494263 304.83663742 -214.36678955 304.04778656 -213.82263184 303.23503113 C-213.25185913 302.3923317 -212.68108643 301.54963226 -212.09301758 300.68139648 C-211.49807495 299.79418411 -210.90313232 298.90697174 -210.29016113 297.99287415 C-208.38506691 295.15301025 -206.47388737 292.31731499 -204.56176758 289.48217773 C-202.06894212 285.77992031 -199.57917322 282.07563625 -197.09301758 278.36889648 C-196.4845549 277.4617691 -195.87609222 276.55464172 -195.24919128 275.62002563 C-191.21669046 269.58459452 -187.31254806 263.48369369 -183.49629211 257.30979919 C-179.93146053 251.54951046 -176.20297488 245.90725502 -172.42111206 240.28695679 C-170.26875757 237.08687162 -168.12644923 233.88006713 -165.98364258 230.67358398 C-165.5177623 229.97662918 -165.05188202 229.27967438 -164.57188416 228.56159973 C-158.33982042 219.22904257 -152.17132917 209.85447319 -145.99926758 200.48217773 C-145.38368988 199.54756714 -144.76811218 198.61295654 -144.13388062 197.65002441 C-140.38210082 191.95354412 -136.63148843 186.25629608 -132.88128662 180.55877686 C-129.99543583 176.17477347 -127.10869933 171.7913535 -124.22192383 167.40795898 C-123.10872229 165.71761178 -121.99552241 164.02726347 -120.88232422 162.33691406 C-120.33432159 161.50479401 -119.78631897 160.67267395 -119.22171021 159.81533813 C-117.55689165 157.28727353 -115.89219815 154.75912664 -114.22753906 152.23095703 C-105.39868703 138.82259016 -96.56430799 125.41787104 -87.72875977 112.01391602 C-79.5570847 99.61694017 -71.38813102 87.21817848 -63.22271729 74.81707764 C-61.57335584 72.31227624 -59.92379718 69.80760485 -58.27416992 67.30297852 C-52.89013179 59.12821876 -47.50738044 50.95261921 -42.12811279 42.77471924 C-39.46186275 38.72184258 -36.79450334 34.66969677 -34.12695312 30.61767578 C-32.84634953 28.6718738 -31.56622878 26.72575394 -30.28662109 24.77929688 C-28.50719422 22.07265906 -26.7260713 19.3671446 -24.94458008 16.66186523 C-24.42183502 15.86581879 -23.89908997 15.06977234 -23.36050415 14.24960327 C-22.86634003 13.49990265 -22.3721759 12.75020203 -21.86303711 11.9777832 C-21.44039581 11.33533661 -21.01775452 10.69289001 -20.58230591 10.03097534 C-20.08052826 9.29299713 -19.57875061 8.55501892 -19.06176758 7.79467773 C-18.66927873 6.90855694 -18.66927873 6.90855694 -18.26886082 6.00453472 C-14.3940992 -1.41675772 -7.45392556 -0.14169961 0 0 Z " fill="#FFFFFF" transform="translate(230.061767578125,32.205322265625)"/>
<path d="M0 0 C1.13671615 -0.00935994 2.27343229 -0.01871989 3.44459438 -0.02836347 C7.2325071 -0.05219014 11.01896274 -0.03337976 14.80688477 -0.01446533 C17.5310462 -0.01930113 20.25514684 -0.03306969 22.97927856 -0.04632568 C29.59751163 -0.07293652 36.21533529 -0.06727393 42.83358407 -0.04984984 C48.21468212 -0.03627212 53.59566584 -0.03447361 58.97677612 -0.04099274 C60.12773857 -0.04237183 60.12773857 -0.04237183 61.30195278 -0.04377879 C62.86096616 -0.04569724 64.41997951 -0.04764252 65.97899282 -0.04961434 C80.58093785 -0.06670339 95.18265648 -0.04708355 109.78456438 -0.01481214 C122.30025585 0.0119927 134.81561337 0.00733598 147.33129883 -0.02032471 C161.88273772 -0.05246975 176.43397844 -0.06505562 190.98544788 -0.04665112 C192.53856719 -0.04473993 194.09168654 -0.0428537 195.64480591 -0.04099274 C196.79090439 -0.03960426 196.79090439 -0.03960426 197.96015638 -0.03818773 C203.33171169 -0.03301791 208.70314076 -0.04172823 214.07467651 -0.05587006 C220.62531479 -0.07273787 227.17552197 -0.06806165 233.72611117 -0.03618559 C237.06546671 -0.02046874 240.40351358 -0.0174055 243.74295425 -0.03408051 C247.36987517 -0.05051917 250.99478845 -0.02986373 254.62158203 0 C255.66731605 -0.01338433 256.71305006 -0.02676866 257.79047298 -0.04055858 C265.20464759 0.07755823 270.5300248 2.04217545 276.31079102 6.76190186 C281.16721039 12.8158093 282.45980925 18.00576938 282.45796204 25.6995697 C282.46163872 26.51728247 282.46531541 27.33499525 282.46910352 28.17748719 C282.48014768 30.92723003 282.48398545 33.67693508 282.48779297 36.42669678 C282.49405709 38.39443075 282.50070384 40.36216353 282.50770569 42.32989502 C282.52512059 47.68338546 282.5356689 53.03686696 282.54391122 58.39037871 C282.54906059 61.73479031 282.55513637 65.07919914 282.56142235 68.42360878 C282.58047624 78.88662208 282.59470667 89.34962831 282.60303432 99.81265563 C282.6128069 111.89190655 282.63912624 123.97097423 282.67953521 136.05016059 C282.70969306 145.38530228 282.7245029 154.72039145 282.72781533 164.05558091 C282.73016627 169.63159549 282.73913253 175.20741436 282.7642765 180.78337669 C282.78755617 186.03075671 282.79179076 191.27781214 282.78151512 196.52523041 C282.78101962 198.44888959 282.78734422 200.37256474 282.80107117 202.296175 C282.81879516 204.92760952 282.81168169 207.5578798 282.79853821 210.1893158 C282.80950745 210.94604731 282.8204767 211.70277883 282.83177835 212.4824416 C282.7538074 218.97244624 280.61710296 224.0820981 276.38110352 229.00408936 C275.73915039 229.54291748 275.09719727 230.08174561 274.43579102 230.63690186 C273.79899414 231.19119873 273.16219727 231.74549561 272.50610352 232.31658936 C267.38267072 235.68966788 262.20310609 236.04964759 256.22427368 236.00241089 C255.02827012 236.00497416 255.02827012 236.00497416 253.80810487 236.00758922 C251.14565912 236.01087436 248.48346733 235.99989657 245.82104492 235.98895264 C243.90885423 235.98838831 241.9966631 235.9887055 240.08447266 235.98983765 C234.8990049 235.99041133 229.71362971 235.97865444 224.52818346 235.96468973 C219.10695903 235.95218501 213.68573247 235.95101207 208.26449585 235.94863892 C198.00112788 235.9424234 187.73780253 235.92601158 177.47445333 235.90593994 C165.78893184 235.8835832 154.10340831 235.87258807 142.41787076 235.86254907 C118.38215389 235.84164544 94.34647484 235.80646803 70.31079102 235.76190186 C70.30859118 234.64071347 70.30859118 234.64071347 70.30634689 233.49687481 C70.2692295 215.27532788 70.21014957 197.05397189 70.12688828 178.8325758 C70.08714778 170.0206848 70.05473002 161.20888246 70.03979492 152.39691162 C70.02675246 144.71274578 69.99972189 137.02877543 69.95617795 129.34471971 C69.93362121 125.27933336 69.91787684 121.21418761 69.91890717 117.14873314 C69.91965723 113.31463224 69.90156918 109.481062 69.86962318 105.64709854 C69.86117151 104.24720623 69.85934177 102.84725407 69.86498833 101.44734764 C69.90678552 89.48227202 67.99012553 78.57654893 59.31079102 69.76190186 C48.9234276 60.98946442 37.55110814 60.30569669 24.45922852 60.25018311 C22.94892955 60.23330514 21.43864436 60.21515079 19.92837524 60.19578552 C15.98627023 60.14861715 12.0442211 60.11859475 8.10192871 60.09234619 C4.0659685 60.06237165 0.03020029 60.01590014 -4.00561523 59.97088623 C-11.90005139 59.88523133 -19.7945057 59.8177197 -27.68920898 59.76190186 C-27.83850991 53.82125624 -27.94687234 47.88172337 -28.01879883 41.93963623 C-28.04880883 39.92218989 -28.08963111 37.90487222 -28.1418457 35.88787842 C-28.67181331 14.87622168 -28.67181331 14.87622168 -23.68416691 8.79533315 C-16.7446333 1.72196853 -9.64009079 -0.12338334 0 0 Z " fill="#FFFFFF" transform="translate(807.689208984375,672.2380981445313)"/>
<path d="M0 0 C1.01881012 -0.00297112 2.03762024 -0.00594224 3.0873034 -0.0090034 C6.5056593 -0.01768409 9.92398014 -0.01919812 13.34234619 -0.02069092 C15.79150467 -0.02531951 18.24066242 -0.03034423 20.68981934 -0.03573608 C27.34694137 -0.04885759 34.0040497 -0.05534134 40.66118145 -0.05974674 C44.82004359 -0.062512 48.97890341 -0.06674986 53.13776398 -0.07125092 C64.65868356 -0.08344108 76.1796013 -0.09374104 87.70052719 -0.09712601 C88.80597192 -0.09745536 88.80597192 -0.09745536 89.93374886 -0.09779136 C91.0417949 -0.09811878 91.0417949 -0.09811878 92.17222571 -0.09845281 C93.66903671 -0.09889627 95.1658477 -0.09934283 96.66265869 -0.09979248 C97.40512408 -0.10001391 98.14758947 -0.10023534 98.91255382 -0.10046348 C110.9403896 -0.10441065 122.96816476 -0.12186332 134.99597713 -0.145152 C147.3528669 -0.16888422 159.70972627 -0.1813287 172.06663918 -0.18249393 C179.00132567 -0.18340961 185.93593316 -0.1891351 192.87059784 -0.20731354 C199.3942512 -0.22435467 205.91778127 -0.22595318 212.44145966 -0.21717453 C214.83394777 -0.21640378 217.22644391 -0.22075181 219.61891174 -0.23063278 C222.88902312 -0.24334493 226.15860306 -0.23747901 229.42871094 -0.22705078 C230.37182184 -0.23510719 231.31493274 -0.24316359 232.28662276 -0.25146413 C239.86514226 -0.19507696 247.39313831 1.07170513 253.28082275 6.20294189 C253.89570557 6.70954346 254.51058838 7.21614502 255.144104 7.73809814 C260.53837571 14.8419035 261.55560716 22.57145836 261.47003174 31.24639893 C261.47813622 32.83865295 261.47813622 32.83865295 261.48640442 34.46307373 C261.49882414 37.94175843 261.48244722 41.41960467 261.4644165 44.89825439 C261.46457163 47.33102461 261.46606277 49.76379507 261.46882629 52.19656372 C261.47020719 57.2819722 261.45770177 62.36709758 261.43487549 67.45245361 C261.40646197 73.96006558 261.40924078 80.46720859 261.4219656 86.97485542 C261.42893006 91.99354028 261.42112513 97.01211733 261.40870857 102.03078842 C261.4042037 104.43008892 261.40384881 106.82940103 261.40777397 109.22870255 C261.41069441 112.5838 261.39413954 115.93825749 261.37237549 119.29327393 C261.37912796 120.7694368 261.37912796 120.7694368 261.38601685 122.27542114 C261.30338362 129.96841939 259.99447076 136.85227093 254.58971637 142.76862818 C247.85244465 148.46883671 240.67824049 149.87420788 232.10758972 149.76863098 C231.06000616 149.77572537 230.0124226 149.78281976 228.93309408 149.79012913 C225.44697876 149.80763424 221.96198941 149.78964149 218.47589111 149.77154541 C215.9668782 149.77668701 213.4578689 149.7839701 210.9488678 149.79322815 C204.85634439 149.80980073 198.76423374 149.8031297 192.67172616 149.78513993 C187.71826219 149.7710814 182.76488528 149.76722808 177.81140327 149.7705822 C177.1048642 149.77105964 176.39832513 149.77153708 175.67037578 149.77202899 C174.23481068 149.77305538 172.79924561 149.77411074 171.36368055 149.77519476 C158.68682716 149.78375059 146.01012868 149.76712255 133.33331299 149.73736572 C121.04646297 149.70852489 108.75983602 149.70144909 96.47296143 149.71685791 C83.07555742 149.73363655 69.67825917 149.73763783 56.28085238 149.72014755 C54.85104375 149.71830326 53.42123512 149.71646854 51.99142647 149.71464348 C50.93633255 149.71327534 50.93633255 149.71327534 49.85992361 149.71187957 C44.91472983 149.70628497 39.96958786 149.70957123 35.0243969 149.71618843 C28.36350568 149.72474806 21.7029828 149.71170592 15.04212761 149.68433952 C12.59965975 149.67746098 10.1571619 149.67735198 7.71469498 149.68455505 C4.37679765 149.69326359 1.03988713 149.67726846 -2.29792786 149.65510559 C-3.26097385 149.66334636 -4.22401984 149.67158713 -5.21624905 149.68007761 C-12.53709598 149.59056098 -18.64873682 147.93037941 -24.371521 143.21075439 C-24.89874756 142.56880127 -25.42597412 141.92684814 -25.96917725 141.26544189 C-26.51445068 140.62864502 -27.05972412 139.99184814 -27.621521 139.33575439 C-31.50895854 133.28384332 -31.32836006 127.15728954 -31.32220459 120.2131958 C-31.32892181 119.12301651 -31.33563904 118.03283722 -31.34255981 116.90962219 C-31.3615305 113.31203634 -31.36546347 109.71463712 -31.36761475 106.11700439 C-31.3740429 103.61125614 -31.38077128 101.10550864 -31.38778687 98.59976196 C-31.39975701 93.34931227 -31.4035537 88.09890977 -31.40228271 82.84844971 C-31.40108164 76.79419391 -31.42218263 70.74029479 -31.45377004 64.68612921 C-31.48315198 58.84485999 -31.49025673 53.00373112 -31.48906326 47.16239548 C-31.49142033 44.68492552 -31.50024977 42.20745279 -31.515728 39.73003006 C-31.53536863 36.26187958 -31.52955673 32.7946429 -31.51751709 29.32647705 C-31.5287561 28.30803207 -31.53999512 27.2895871 -31.55157471 26.24028015 C-31.48348298 18.50393963 -29.7022652 13.31627621 -24.71917725 7.39044189 C-16.85399999 0.80564233 -9.92900617 -0.00903677 0 0 Z " fill="#FFFFFF" transform="translate(590.0316772460938,758.8595581054688)"/>
<path d="M0 0 C73.26 0 146.52 0 222 0 C225.58896554 39.47862092 219.57081226 81.36264299 194 113 C175.46105278 134.56283038 149.06055975 144.26307115 121.27734375 146.53515625 C118.85225328 146.70889407 116.42735087 146.86186689 114 147 C112.98808594 147.06058594 111.97617188 147.12117187 110.93359375 147.18359375 C82.3188022 147.94486363 54.13419085 140.03085987 32.25 121.3125 C10.99891144 101.05999416 0.17620242 69.73043461 -1.09413147 40.86076355 C-1.13019951 38.73727547 -1.13879129 36.61596716 -1.1328125 34.4921875 C-1.13376923 33.72246613 -1.13472595 32.95274475 -1.13571167 32.15969849 C-1.13638632 30.54803383 -1.13458246 28.93636633 -1.13037109 27.32470703 C-1.12499772 24.87396095 -1.1303481 22.42339686 -1.13671875 19.97265625 C-1.13605813 18.39583293 -1.1347773 16.81900973 -1.1328125 15.2421875 C-1.13483673 14.51909393 -1.13686096 13.79600037 -1.13894653 13.05099487 C-1.11834589 8.53392443 -0.64797555 4.53582882 0 0 Z " fill="#FFFFFF" transform="translate(1147,382)"/>
<path d="M0 0 C0.85698673 0.00291284 1.71397346 0.00582568 2.59692949 0.00882679 C3.50024899 0.00797237 4.40356848 0.00711794 5.3342613 0.00623763 C8.38529224 0.00458005 11.43626915 0.01010871 14.48729509 0.01555592 C16.66475479 0.01583776 18.84221459 0.01568012 21.01967424 0.01511341 C26.95125229 0.01482531 32.88281031 0.02072415 38.81438369 0.02768737 C45.0057224 0.03391873 51.19706152 0.03452453 57.38840288 0.03571278 C68.4537988 0.03864949 79.51918639 0.04587962 90.58457851 0.0553555 C104.60652416 0.0672998 118.62846867 0.07348206 132.65041834 0.0787577 C160.12917082 0.08922356 187.60791505 0.10682425 215.08666033 0.12908131 C222.19154556 33.9680113 212.37669681 75.23872899 194.08666033 104.12908131 C179.03467895 126.58191814 156.60031165 138.92992577 130.62035173 144.64031178 C98.98066799 150.74386226 64.79392051 147.12879947 37.00462908 130.25798756 C12.80676294 113.60680929 0.18979869 87.60383884 -5.46119124 59.39421803 C-8.80624247 40.75037883 -10.08127332 19.8877741 -6.91333967 1.12908131 C-5.06705536 -0.717203 -2.45694094 0.00633811 0 0 Z " fill="#FFFFFF" transform="translate(585.9133396744728,381.8709186911583)"/>
<path d="M0 0 C73.26 0 146.52 0 222 0 C222 44.66257676 219.822322 85.60874109 188.1875 119.25 C167.88310007 138.57783561 141.29361023 145.69271259 114 147 C112.71609375 147.06380859 112.71609375 147.06380859 111.40625 147.12890625 C88.56170526 147.67110272 66.87813037 143.31385651 47 132 C45.72769531 131.27683594 45.72769531 131.27683594 44.4296875 130.5390625 C22.8805083 117.17702665 9.2848278 93.84545413 3.42626953 69.62841797 C0.81251715 58.30215765 -1.16164582 47.29584517 -1.1328125 35.64453125 C-1.13376923 34.7798674 -1.13472595 33.91520355 -1.13571167 33.02433777 C-1.13638789 31.20999071 -1.13457283 29.39564115 -1.13037109 27.58129883 C-1.12499516 24.81000345 -1.13034515 22.03886867 -1.13671875 19.26757812 C-1.13605825 17.49739548 -1.13477768 15.72721293 -1.1328125 13.95703125 C-1.13483673 13.13298294 -1.13686096 12.30893463 -1.13894653 11.45991516 C-1.13421829 10.29796883 -1.13421829 10.29796883 -1.12939453 9.11254883 C-1.12859894 8.43718582 -1.12780334 7.76182281 -1.12698364 7.06599426 C-1 5 -1 5 0 0 Z " fill="#FFFFFF" transform="translate(861,382)"/>
<path d="M0 0 C73.26 0 146.52 0 222 0 C223.0159047 8.1272376 223.24347724 16.02586525 223.25 24.1875 C223.25067474 24.94466309 223.25134949 25.70182617 223.25204468 26.48193359 C223.20881222 57.079203 217.21693357 87.39959923 198 112 C197.37609375 112.80695313 196.7521875 113.61390625 196.109375 114.4453125 C179.48014884 134.49820288 154.00900741 143.71679778 128.76171875 146.3359375 C97.28464433 149.07307441 64.40015151 144.29779818 39.3125 123.8046875 C12.30426345 100.17248052 1.85173672 66.71913433 -0.75 31.8125 C-1.25489283 21.04145306 -0.89837768 10.78053216 0 0 Z " fill="#FFFFFF" transform="translate(294,382)"/>
<path d="M0 0 C73.26 0 146.52 0 222 0 C222.79626144 4.77756866 223.17363936 9.17567775 223.203125 13.9765625 C223.21009399 14.73563904 223.21706299 15.49471558 223.22424316 16.27679443 C223.24161388 18.72625276 223.24796735 21.17548256 223.25 23.625 C223.25100708 24.45880188 223.25201416 25.29260376 223.25305176 26.15167236 C223.24281117 38.65814178 222.78467967 50.75870272 220 63 C219.7831958 63.99749268 219.7831958 63.99749268 219.56201172 65.01513672 C215.66855697 82.50765711 208.60070342 99.24214099 197 113 C196.35546875 113.80179687 195.7109375 114.60359375 195.046875 115.4296875 C178.85363395 134.68165186 154.06980689 143.95715514 129.53515625 146.3359375 C126.02396336 146.61805289 122.51836764 146.83148005 119 147 C117.71609375 147.06380859 117.71609375 147.06380859 116.40625 147.12890625 C86.35227316 147.84221266 56.36177501 140.08681536 34.12597656 119.15112305 C17.40832725 102.86524287 8.19540199 81.45189658 3 59 C2.83338867 58.29858887 2.66677734 57.59717773 2.49511719 56.87451172 C-1.71023279 38.17681175 0 19.0643017 0 0 Z " fill="#FFFFFF" transform="translate(10,382)"/>
</svg>
