<svg id="icon" enable-background="new 0 0 512 512" viewBox="0 0 512 512" xmlns="http://www.w3.org/2000/svg"><g id="XMLID_1441_"><g id="XMLID_561_"><path id="XMLID_592_" d="m482 275.988h-10v-70c0-27.596-19.378-50.736-45.238-56.568l-45.515-78.834c-6.67-11.553-17.44-19.818-30.327-23.271-9.099-2.437-18.481-2.258-27.279.398l-33.096-33.097c-19.475-19.473-51.159-19.475-70.634 0l-133.37 133.372h-28.541c-31.981 0-58 26.019-58 58v248c0 31.981 26.019 58 58 58h133c5.522 0 10-4.478 10-10s-4.478-10-10-10h-133c-20.953 0-38-17.047-38-38v-248c0-20.953 17.047-38 38-38h356c20.953 0 38 17.047 38 38v70h-74c-29.775 0-54 24.225-54 54s24.225 54 54 54h74v70c0 20.953-17.047 38-38 38h-133c-5.522 0-10 4.478-10 10s4.478 10 10 10h133c31.981 0 58-26.019 58-58v-70h10c16.542 0 30-13.458 30-30v-48c0-16.541-13.458-30-30-30zm-136.256-209.354c7.726 2.07 14.184 7.025 18.183 13.952l38.915 67.402h-215.549l135.728-78.363c6.926-3.998 14.994-5.062 22.723-2.991zm-111.69-37.875c5.655-5.656 13.176-8.771 21.174-8.771 7.999 0 15.52 3.115 21.175 8.771l28.331 28.331-157.44 90.898h-32.468zm257.946 325.229c0 5.514-4.486 10-10 10h-104c-18.748 0-34-15.252-34-34s15.252-34 34-34h104c5.514 0 10 4.486 10 10z"/><path id="XMLID_1063_" d="m376.33 319.988c-2.63 0-5.21 1.069-7.07 2.93s-2.93 4.43-2.93 7.07c0 2.63 1.069 5.21 2.93 7.069 1.86 1.86 4.44 2.931 7.07 2.931 2.64 0 5.21-1.07 7.069-2.931 1.87-1.859 2.931-4.439 2.931-7.069s-1.061-5.21-2.931-7.07c-1.859-1.86-4.429-2.93-7.069-2.93z"/><path id="XMLID_1068_" d="m236 491.988c-2.63 0-5.21 1.069-7.07 2.93s-2.93 4.44-2.93 7.07 1.069 5.21 2.93 7.069c1.86 1.86 4.44 2.931 7.07 2.931s5.21-1.07 7.069-2.931c1.86-1.859 2.931-4.439 2.931-7.069s-1.07-5.21-2.931-7.07c-1.859-1.86-4.439-2.93-7.069-2.93z"/></g></g></svg>