<svg width="24" height="24" viewBox="0 0 24 24" fill="none" xmlns="http://www.w3.org/2000/svg">
<g clip-path="url(#clip0_562_2133)">
<path d="M7 4V21M4 4V7C4 7.39397 4.0776 7.78407 4.22836 8.14805C4.37913 8.51203 4.6001 8.84274 4.87868 9.12132C5.15726 9.3999 5.48797 9.62087 5.85195 9.77164C6.21593 9.9224 6.60603 10 7 10C7.39397 10 7.78407 9.9224 8.14805 9.77164C8.51203 9.62087 8.84274 9.3999 9.12132 9.12132C9.3999 8.84274 9.62087 8.51203 9.77164 8.14805C9.9224 7.78407 10 7.39397 10 7V4" stroke="#DC2626" stroke-width="2" stroke-linecap="round" stroke-linejoin="round"/>
<path d="M14 8C14 9.06087 14.3161 10.0783 14.8787 10.8284C15.4413 11.5786 16.2044 12 17 12C17.7956 12 18.5587 11.5786 19.1213 10.8284C19.6839 10.0783 20 9.06087 20 8C20 6.93913 19.6839 5.92172 19.1213 5.17157C18.5587 4.42143 17.7956 4 17 4C16.2044 4 15.4413 4.42143 14.8787 5.17157C14.3161 5.92172 14 6.93913 14 8Z" stroke="#DC2626" stroke-width="2" stroke-linecap="round" stroke-linejoin="round"/>
<path d="M17 12V21" stroke="#DC2626" stroke-width="2" stroke-linecap="round" stroke-linejoin="round"/>
</g>
<defs>
<clipPath id="clip0_562_2133">
<rect width="24" height="24" fill="white"/>
</clipPath>
</defs>
</svg>
