<svg width="24" height="24" viewBox="0 0 24 24" fill="none" xmlns="http://www.w3.org/2000/svg">
<g clip-path="url(#clip0_514_4341)">
<path d="M21 15H18.5C18.102 15 17.721 15.158 17.439 15.439C17.158 15.72 17 16.102 17 16.5C17 16.898 17.158 17.279 17.439 17.561C17.72 17.842 18.102 18 18.5 18H19.5C19.898 18 20.279 18.158 20.561 18.439C20.842 18.72 21 19.102 21 19.5C21 19.898 20.842 20.279 20.561 20.561C20.28 20.842 19.898 21 19.5 21H17" stroke="#415C87" stroke-width="2" stroke-linecap="round" stroke-linejoin="round"/>
<path d="M19 21V22M19 14V15" stroke="#415C87" stroke-width="2" stroke-linecap="round" stroke-linejoin="round"/>
<path d="M13 21H6C5.47 21 4.961 20.789 4.586 20.414C4.211 20.039 4 19.53 4 19V9C4 8.47 4.211 7.961 4.586 7.586C4.961 7.211 5.47 7 6 7H8M20 10.12V9C20 8.47 19.789 7.961 19.414 7.586C19.039 7.211 18.53 7 18 7H16" stroke="#415C87" stroke-width="2" stroke-linecap="round" stroke-linejoin="round"/>
<path d="M16 10V4C16 3.47 15.789 2.961 15.414 2.586C15.039 2.211 14.53 2 14 2H10C9.47 2 8.961 2.211 8.586 2.586C8.211 2.961 8 3.47 8 4V10M16 10H8M16 10H17M8 10H7" stroke="#415C87" stroke-width="2" stroke-linecap="round" stroke-linejoin="round"/>
<path d="M8 14V14.01" stroke="#415C87" stroke-width="2" stroke-linecap="round" stroke-linejoin="round"/>
<path d="M8 17V17.01" stroke="#415C87" stroke-width="2" stroke-linecap="round" stroke-linejoin="round"/>
<path d="M12 13.99V14" stroke="#415C87" stroke-width="2" stroke-linecap="round" stroke-linejoin="round"/>
<path d="M12 17V17.01" stroke="#415C87" stroke-width="2" stroke-linecap="round" stroke-linejoin="round"/>
</g>
<defs>
<clipPath id="clip0_514_4341">
<rect width="24" height="24" fill="white"/>
</clipPath>
</defs>
</svg>
