<svg width="25" height="24" viewBox="0 0 25 24" fill="none" xmlns="http://www.w3.org/2000/svg">
<g clip-path="url(#clip0_562_2142)">
<path d="M10 5.5C10 6.16304 10.2634 6.79893 10.7322 7.26777C11.2011 7.73661 11.837 8 12.5 8C13.163 8 13.7989 7.73661 14.2678 7.26777C14.7366 6.79893 15 6.16304 15 5.5C15 4.83696 14.7366 4.20107 14.2678 3.73223C13.7989 3.26339 13.163 3 12.5 3C11.837 3 11.2011 3.26339 10.7322 3.73223C10.2634 4.20107 10 4.83696 10 5.5Z" stroke="#FA61FF" stroke-width="2" stroke-linecap="round" stroke-linejoin="round"/>
<path d="M12.5 21.368L17.595 16.272C17.8848 15.9859 18.1151 15.6453 18.2728 15.2699C18.4304 14.8944 18.5123 14.4915 18.5136 14.0843C18.5149 13.6771 18.4357 13.2737 18.2804 12.8972C18.1252 12.5208 17.8971 12.1787 17.6091 11.8908C17.3212 11.6028 16.9792 11.3747 16.6027 11.2195C16.2262 11.0643 15.8228 10.985 15.4156 10.9863C15.0084 10.9877 14.6055 11.0695 14.23 11.2272C13.8546 11.3848 13.514 11.6152 13.228 11.905L12.5 12.632L11.772 11.905C11.4859 11.6152 11.1453 11.3848 10.7699 11.2272C10.3944 11.0695 9.99152 10.9877 9.58432 10.9863C9.17712 10.985 8.77368 11.0643 8.39722 11.2195C8.02076 11.3747 7.67872 11.6028 7.39078 11.8908C7.10285 12.1787 6.8747 12.5208 6.71948 12.8972C6.56426 13.2737 6.48503 13.6771 6.48634 14.0843C6.48766 14.4915 6.5695 14.8944 6.72716 15.2699C6.88481 15.6453 7.11517 15.9859 7.40496 16.272L12.5 21.368Z" stroke="#FA61FF" stroke-width="2" stroke-linecap="round" stroke-linejoin="round"/>
</g>
<defs>
<clipPath id="clip0_562_2142">
<rect width="24" height="24" fill="white" transform="translate(0.5)"/>
</clipPath>
</defs>
</svg>
