<svg width="22" height="18" viewBox="0 0 22 18" fill="none" xmlns="http://www.w3.org/2000/svg">
<path d="M4 5C4 5.28333 3.90417 5.52083 3.7125 5.7125C3.52083 5.90417 3.28333 6 3 6C2.71667 6 2.47917 5.90417 2.2875 5.7125C2.09583 5.52083 2 5.28333 2 5C2 4.71667 2.09583 4.47917 2.2875 4.2875C2.47917 4.09583 2.71667 4 3 4C3.28333 4 3.52083 4.09583 3.7125 4.2875C3.90417 4.47917 4 4.71667 4 5ZM4 1C4 1.28333 3.90417 1.52083 3.7125 1.7125C3.52083 1.90417 3.28333 2 3 2C2.71667 2 2.47917 1.90417 2.2875 1.7125C2.09583 1.52083 2 1.28333 2 1C2 0.716667 2.09583 0.479168 2.2875 0.2875C2.47917 0.0958328 2.71667 0 3 0C3.28333 0 3.52083 0.0958328 3.7125 0.2875C3.90417 0.479168 4 0.716667 4 1ZM8 1C8 1.28333 7.90417 1.52083 7.7125 1.7125C7.52083 1.90417 7.28333 2 7 2C6.71667 2 6.47917 1.90417 6.2875 1.7125C6.09583 1.52083 6 1.28333 6 1C6 0.716667 6.09583 0.479168 6.2875 0.2875C6.47917 0.0958328 6.71667 0 7 0C7.28333 0 7.52083 0.0958328 7.7125 0.2875C7.90417 0.479168 8 0.716667 8 1ZM12 1C12 1.28333 11.9042 1.52083 11.7125 1.7125C11.5208 1.90417 11.2833 2 11 2C10.7167 2 10.4792 1.90417 10.2875 1.7125C10.0958 1.52083 10 1.28333 10 1C10 0.716667 10.0958 0.479168 10.2875 0.2875C10.4792 0.0958328 10.7167 0 11 0C11.2833 0 11.5208 0.0958328 11.7125 0.2875C11.9042 0.479168 12 0.716667 12 1ZM16 1C16 1.28333 15.9042 1.52083 15.7125 1.7125C15.5208 1.90417 15.2833 2 15 2C14.7167 2 14.4792 1.90417 14.2875 1.7125C14.0958 1.52083 14 1.28333 14 1C14 0.716667 14.0958 0.479168 14.2875 0.2875C14.4792 0.0958328 14.7167 0 15 0C15.2833 0 15.5208 0.0958328 15.7125 0.2875C15.9042 0.479168 16 0.716667 16 1ZM20 5C20 5.28333 19.9042 5.52083 19.7125 5.7125C19.5208 5.90417 19.2833 6 19 6C18.7167 6 18.4792 5.90417 18.2875 5.7125C18.0958 5.52083 18 5.28333 18 5C18 4.71667 18.0958 4.47917 18.2875 4.2875C18.4792 4.09583 18.7167 4 19 4C19.2833 4 19.5208 4.09583 19.7125 4.2875C19.9042 4.47917 20 4.71667 20 5ZM20 1C20 1.28333 19.9042 1.52083 19.7125 1.7125C19.5208 1.90417 19.2833 2 19 2C18.7167 2 18.4792 1.90417 18.2875 1.7125C18.0958 1.52083 18 1.28333 18 1C18 0.716667 18.0958 0.479168 18.2875 0.2875C18.4792 0.0958328 18.7167 0 19 0C19.2833 0 19.5208 0.0958328 19.7125 0.2875C19.9042 0.479168 20 0.716667 20 1ZM20 16C20 16.55 19.8042 17.0208 19.4125 17.4125C19.0208 17.8042 18.55 18 18 18H4C3.45 18 2.97917 17.8042 2.5875 17.4125C2.19583 17.0208 2 16.55 2 16L2 13C2 12.7167 2.09583 12.4792 2.2875 12.2875C2.47917 12.0958 2.71667 12 3 12C3.28333 12 3.52083 12.0958 3.7125 12.2875C3.90417 12.4792 4 12.7167 4 13V16H18V13C18 12.7167 18.0958 12.4792 18.2875 12.2875C18.4792 12.0958 18.7167 12 19 12C19.2833 12 19.5208 12.0958 19.7125 12.2875C19.9042 12.4792 20 12.7167 20 13V16ZM21 10H1C0.716667 10 0.479167 9.90417 0.2875 9.7125C0.0958333 9.52083 0 9.28333 0 9C0 8.71667 0.0958333 8.47917 0.2875 8.2875C0.479167 8.09583 0.716667 8 1 8L21 8C21.2833 8 21.5208 8.09583 21.7125 8.2875C21.9042 8.47917 22 8.71667 22 9C22 9.28333 21.9042 9.52083 21.7125 9.7125C21.5208 9.90417 21.2833 10 21 10Z" fill="white"/>
</svg>
