<svg width="24" height="24" viewBox="0 0 24 24" fill="none" xmlns="http://www.w3.org/2000/svg">
<g clip-path="url(#clip0_592_3528)">
<path d="M12 8C12.7826 8 13.548 8.22958 14.2014 8.66029C14.8549 9.09101 15.3676 9.70394 15.6761 10.4232C15.9846 11.1424 16.0753 11.9363 15.9371 12.7066C15.7988 13.4769 15.4376 14.1898 14.8983 14.7568C14.3589 15.3239 13.665 15.7202 12.9026 15.8968C12.1402 16.0734 11.3427 16.0225 10.6089 15.7503C9.87519 15.4782 9.23739 14.9967 8.77454 14.3657C8.31169 13.7346 8.04413 12.9816 8.005 12.2L8 12L8.005 11.8C8.05631 10.775 8.4996 9.80901 9.24319 9.10172C9.98677 8.39444 10.9738 8 12 8Z" fill="#6F757E"/>
<path d="M12 20C12.2449 20 12.4813 20.09 12.6644 20.2527C12.8474 20.4155 12.9643 20.6397 12.993 20.883L13 21.01C12.9997 21.2649 12.9021 21.51 12.7272 21.6954C12.5522 21.8807 12.313 21.9922 12.0586 22.0072C11.8042 22.0221 11.5536 21.9393 11.3582 21.7757C11.1627 21.6121 11.0371 21.3801 11.007 21.127L11 21C11 20.7348 11.1054 20.4804 11.2929 20.2929C11.4804 20.1054 11.7348 20 12 20Z" fill="#6F757E"/>
<path d="M3 8C3.24493 8.00003 3.48134 8.08996 3.66437 8.25272C3.84741 8.41547 3.96434 8.63975 3.993 8.883L4 9.01C3.99972 9.26488 3.90212 9.51003 3.72715 9.69537C3.55218 9.8807 3.31305 9.99223 3.05861 10.0072C2.80416 10.0221 2.55362 9.93933 2.35817 9.77573C2.16271 9.61214 2.0371 9.3801 2.007 9.127L2 9C2 8.73478 2.10536 8.48043 2.29289 8.29289C2.48043 8.10536 2.73478 8 3 8Z" fill="#6F757E"/>
<path d="M21 8C21.2449 8.00003 21.4813 8.08996 21.6644 8.25272C21.8474 8.41547 21.9643 8.63975 21.993 8.883L22 9.01C21.9997 9.26488 21.9021 9.51003 21.7272 9.69537C21.5522 9.8807 21.313 9.99223 21.0586 10.0072C20.8042 10.0221 20.5536 9.93933 20.3582 9.77573C20.1627 9.61214 20.0371 9.3801 20.007 9.127L20 9C20 8.73478 20.1054 8.48043 20.2929 8.29289C20.4804 8.10536 20.7348 8 21 8Z" fill="#6F757E"/>
<path d="M2.88997 12.0061C3.02051 11.9916 3.15261 12.003 3.27874 12.0396C3.40487 12.0762 3.52255 12.1373 3.62507 12.2194C3.72759 12.3015 3.81293 12.403 3.87623 12.518C3.93952 12.6331 3.97953 12.7595 3.99397 12.8901C4.14226 14.2315 4.62749 15.5135 5.4045 16.617C6.18151 17.7204 7.22504 18.6094 8.43797 19.2011C8.55609 19.2586 8.66173 19.3388 8.74885 19.4372C8.83597 19.5355 8.90287 19.65 8.94572 19.7742C8.98858 19.8984 9.00655 20.0299 8.99861 20.161C8.99068 20.2922 8.95699 20.4205 8.89947 20.5386C8.84195 20.6567 8.76173 20.7623 8.66338 20.8495C8.56504 20.9366 8.4505 21.0035 8.3263 21.0463C8.2021 21.0892 8.07068 21.1072 7.93953 21.0992C7.80839 21.0913 7.68009 21.0576 7.56197 21.0001C6.04545 20.2605 4.74073 19.1491 3.76928 17.7696C2.79783 16.3901 2.19124 14.7871 2.00597 13.1101C1.97706 12.8466 2.05393 12.5824 2.21969 12.3756C2.38544 12.1688 2.62653 12.0362 2.88997 12.0071V12.0061Z" fill="#6F757E"/>
<path d="M20.993 12L21.11 12.006C21.2406 12.0204 21.367 12.0604 21.482 12.1237C21.5971 12.187 21.6986 12.2724 21.7807 12.3749C21.8628 12.4774 21.9239 12.5951 21.9605 12.7212C21.9971 12.8474 22.0085 12.9795 21.994 13.11C21.8086 14.7869 21.2019 16.3896 20.2305 17.769C19.259 19.1483 17.9544 20.2595 16.438 20.999C16.32 21.0565 16.1917 21.0902 16.0606 21.0982C15.9296 21.1061 15.7982 21.0882 15.674 21.0454C15.5499 21.0026 15.4354 20.9358 15.3371 20.8487C15.2388 20.7616 15.1585 20.6561 15.101 20.538C15.0435 20.4199 15.0098 20.2917 15.0018 20.1606C14.9939 20.0295 15.0118 19.8982 15.0546 19.774C15.0974 19.6499 15.1643 19.5354 15.2513 19.437C15.3384 19.3387 15.444 19.2585 15.562 19.201C16.7748 18.6094 17.8183 17.7206 18.5953 16.6173C19.3723 15.5141 19.8576 14.2322 20.006 12.891C20.0327 12.6473 20.148 12.422 20.33 12.2577C20.5119 12.0934 20.7479 12.0017 20.993 12Z" fill="#6F757E"/>
<path d="M5.56685 4.22602C7.35357 2.76392 9.59116 1.96509 11.8999 1.96509C14.2086 1.96509 16.4461 2.76392 18.2329 4.22602C18.3368 4.30839 18.4233 4.41061 18.4873 4.52673C18.5514 4.64285 18.5917 4.77055 18.6059 4.90239C18.6202 5.03424 18.608 5.1676 18.5703 5.29471C18.5325 5.42182 18.4698 5.54015 18.3858 5.6428C18.3019 5.74546 18.1983 5.83039 18.0812 5.89265C17.9642 5.95492 17.8359 5.99327 17.7038 6.00548C17.5718 6.01769 17.4386 6.00352 17.3121 5.96378C17.1856 5.92404 17.0682 5.85954 16.9669 5.77402C15.5374 4.60404 13.7471 3.96478 11.8999 3.96478C10.0526 3.96478 8.26232 4.60404 6.83286 5.77402C6.7315 5.85954 6.61415 5.92404 6.48763 5.96378C6.36111 6.00352 6.22795 6.01769 6.0959 6.00548C5.96386 5.99327 5.83556 5.95492 5.71847 5.89265C5.60138 5.83039 5.49785 5.74546 5.4139 5.6428C5.32994 5.54015 5.26725 5.42182 5.22946 5.29471C5.19166 5.1676 5.17953 5.03424 5.19377 4.90239C5.208 4.77055 5.24832 4.64285 5.31237 4.52673C5.37642 4.41061 5.46293 4.30839 5.56685 4.22602Z" fill="#6F757E"/>
</g>
<defs>
<clipPath id="clip0_592_3528">
<rect width="24" height="24" fill="white"/>
</clipPath>
</defs>
</svg>
